<?xml version="1.0" encoding="UTF-8" standalone="no"?>
<!DOCTYPE svg PUBLIC "-//W3C//DTD SVG 1.1//EN" "http://www.w3.org/Graphics/SVG/1.1/DTD/svg11.dtd">
<svg xmlns="http://www.w3.org/2000/svg" version="1.1" viewBox="0.00 0.00 132.00 106.00">
<g stroke-width="2.00" fill="none" stroke-linecap="butt">
<path stroke="#3dfdfe" vector-effect="non-scaling-stroke" d="
  M 111.63 59.90
  C 112.90 59.67 115.32 60.27 116.11 59.98
  Q 116.50 59.84 116.73 59.55
  Q 117.07 59.13 116.54 59.00
  L 111.05 57.63"
/>
<path stroke="#0ea0fd" vector-effect="non-scaling-stroke" d="
  M 111.34 46.88
  Q 114.30 49.07 113.34 54.43
  Q 113.28 54.73 113.54 54.57
  Q 113.66 54.49 113.76 54.40
  Q 113.92 54.24 113.97 53.91
  Q 114.30 51.86 114.29 49.73"
/>
<path stroke="#0cccfc" vector-effect="non-scaling-stroke" d="
  M 114.29 49.73
  Q 115.66 49.13 117.13 49.59
  Q 117.66 49.75 117.87 49.23
  Q 118.89 46.74 117.94 43.42"
/>
<path stroke="#0ea0fd" vector-effect="non-scaling-stroke" d="
  M 117.94 43.42
  Q 118.13 41.48 117.54 39.59"
/>
<path stroke="#1080fc" vector-effect="non-scaling-stroke" d="
  M 117.54 39.59
  Q 117.36 33.36 115.46 27.87"
/>
<path stroke="#147ed7" vector-effect="non-scaling-stroke" d="
  M 115.46 27.87
  L 113.53 22.49"
/>
<path stroke="#157eb4" vector-effect="non-scaling-stroke" d="
  M 113.53 22.49
  L 111.03 17.53"
/>
<path stroke="#0d7f89" vector-effect="non-scaling-stroke" d="
  M 111.03 17.53
  L 109.33 15.07
  Q 109.01 14.60 108.46 14.72
  C 102.27 16.05 100.26 15.11 94.78 12.54"
/>
<path stroke="#0c8083" vector-effect="non-scaling-stroke" d="
  M 92.96 10.71
  Q 96.96 11.34 100.37 13.49
  A 0.32 0.32 0.0 0 0 100.65 13.53
  Q 100.82 13.48 100.97 13.41
  A 0.30 0.30 0.0 0 0 101.00 12.88
  L 93.98 8.72"
/>
<path stroke="#2102d5" vector-effect="non-scaling-stroke" d="
  M 115.46 27.87
  C 113.46 24.05 111.07 26.57 108.37 27.44"
/>
<path stroke="#1f013e" vector-effect="non-scaling-stroke" d="
  M 111.03 17.53
  Q 110.95 17.83 110.57 18.13
  Q 110.22 18.40 109.90 18.11
  L 109.01 17.30
  Q 108.62 16.94 108.09 16.93
  Q 105.21 16.88 102.66 17.94"
/>
<path stroke="#182387" vector-effect="non-scaling-stroke" d="
  M 102.66 17.94
  Q 101.28 16.69 99.13 15.96
  A 0.47 0.47 0.0 0 0 98.61 16.70
  Q 99.30 17.55 99.14 16.82"
/>
<path stroke="#26008d" vector-effect="non-scaling-stroke" d="
  M 113.53 22.49
  L 111.55 19.95
  Q 111.23 19.54 110.73 19.67
  L 107.83 20.46
  A 0.68 0.66 -26.7 0 1 107.14 20.24
  Q 105.85 18.65 103.86 19.55"
/>
<path stroke="#2022b2" vector-effect="non-scaling-stroke" d="
  M 102.66 17.94
  L 103.86 19.55"
/>
<path stroke="#1f22d6" vector-effect="non-scaling-stroke" d="
  M 103.86 19.55
  Q 106.72 23.12 108.37 27.44"
/>
<path stroke="#1b24fb" vector-effect="non-scaling-stroke" d="
  M 108.37 27.44
  Q 110.51 33.74 111.96 40.00
  Q 112.02 40.23 112.15 40.34
  Q 112.32 40.47 112.54 40.50
  A 0.46 0.45 -0.5 0 0 113.04 40.00
  L 112.69 36.75
  Q 112.62 36.10 113.26 36.21
  L 115.40 36.56
  A 0.75 0.75 0.0 0 1 115.99 37.09
  Q 116.43 38.57 117.54 39.59"
/>
<path stroke="#1770fb" vector-effect="non-scaling-stroke" d="
  M 117.94 43.42
  Q 116.12 43.91 116.03 43.64
  A 1.08 1.07 34.8 0 0 113.93 44.01
  L 114.29 49.73"
/>
<path stroke="#195761" vector-effect="non-scaling-stroke" d="
  M 71.33 14.20
  L 58.79 18.17
  A 0.56 0.56 0.0 0 1 58.26 17.20
  Q 58.64 16.88 58.85 17.39"
/>
<path stroke="#0c8083" vector-effect="non-scaling-stroke" d="
  M 67.38 19.01
  Q 60.24 19.64 52.94 22.75"
/>
<path stroke="#190381" vector-effect="non-scaling-stroke" d="
  M 52.19 20.78
  Q 56.31 20.32 56.82 17.04"
/>
<path stroke="#0d7f89" vector-effect="non-scaling-stroke" d="
  M 92.22 23.20
  Q 103.52 31.40 105.25 44.96"
/>
<path stroke="#0c8083" vector-effect="non-scaling-stroke" d="
  M 102.00 66.74
  L 100.57 68.53"
/>
<path stroke="#1080fc" vector-effect="non-scaling-stroke" d="
  M 100.57 68.53
  L 103.49 57.10"
/>
<path stroke="#3e7ff8" vector-effect="non-scaling-stroke" d="
  M 103.49 57.10
  Q 103.90 56.30 103.72 55.02"
/>
<path stroke="#7f7ffd" vector-effect="non-scaling-stroke" d="
  M 103.72 55.02
  C 104.17 47.37 100.82 42.23 96.31 36.02"
/>
<path stroke="#0cccfc" vector-effect="non-scaling-stroke" d="
  M 96.31 36.02
  L 94.93 33.62
  Q 94.25 32.44 94.50 33.78
  Q 94.75 35.17 95.76 36.50"
/>
<path stroke="#7f7ffd" vector-effect="non-scaling-stroke" d="
  M 95.76 36.50
  Q 98.18 42.60 98.33 49.23"
/>
<path stroke="#3e7ff8" vector-effect="non-scaling-stroke" d="
  M 98.33 49.23
  L 98.25 51.48"
/>
<path stroke="#1080fc" vector-effect="non-scaling-stroke" d="
  M 98.25 51.48
  Q 97.85 51.65 98.01 52.91"
/>
<path stroke="#0cccfc" vector-effect="non-scaling-stroke" d="
  M 98.01 52.91
  Q 96.16 52.88 95.36 50.49"
/>
<path stroke="#107e8e" vector-effect="non-scaling-stroke" d="
  M 95.36 50.49
  Q 95.76 49.63 95.27 49.21"
/>
<path stroke="#037f81" vector-effect="non-scaling-stroke" d="
  M 95.27 49.21
  Q 95.22 43.31 92.77 37.99"
/>
<path stroke="#45aeb1" vector-effect="non-scaling-stroke" d="
  M 92.77 37.99
  Q 92.74 36.31 92.02 35.05"
/>
<path stroke="#037f81" vector-effect="non-scaling-stroke" d="
  M 92.02 35.05
  Q 87.69 26.29 78.57 24.41"
/>
<path stroke="#3680c5" vector-effect="non-scaling-stroke" d="
  M 78.57 24.41
  Q 74.22 23.22 69.75 24.11"
/>
<path stroke="#7f7ffd" vector-effect="non-scaling-stroke" d="
  M 69.75 24.11
  Q 64.91 23.41 60.96 25.14"
/>
<path stroke="#3e7ff8" vector-effect="non-scaling-stroke" d="
  M 60.96 25.14
  L 56.09 26.73"
/>
<path stroke="#0cccfc" vector-effect="non-scaling-stroke" d="
  M 56.09 26.73
  Q 47.14 29.32 41.13 35.79"
/>
<path stroke="#037f81" vector-effect="non-scaling-stroke" d="
  M 41.13 35.79
  L 38.81 35.56"
/>
<path stroke="#3e7ff8" vector-effect="non-scaling-stroke" d="
  M 59.97 26.88
  L 48.06 34.00"
/>
<path stroke="#474ff6" vector-effect="non-scaling-stroke" d="
  M 48.06 34.00
  Q 47.49 34.10 47.05 33.98
  A 0.39 0.39 0.0 0 1 46.92 33.28
  L 56.09 26.73"
/>
<path stroke="#190381" vector-effect="non-scaling-stroke" d="
  M 100.57 68.53
  C 99.32 70.62 97.08 69.54 95.29 69.09
  Q 94.80 68.97 94.55 69.41
  L 92.94 72.30"
/>
<path stroke="#2102d5" vector-effect="non-scaling-stroke" d="
  M 92.94 72.30
  Q 91.06 73.41 91.96 67.46"
/>
<path stroke="#10027f" vector-effect="non-scaling-stroke" d="
  M 91.96 67.46
  L 94.62 57.04"
/>
<path stroke="#ba02f7" vector-effect="non-scaling-stroke" d="
  M 103.72 55.02
  Q 102.53 55.58 101.77 54.85
  Q 101.43 54.53 101.36 54.07
  L 101.20 52.86
  A 0.53 0.52 -12.5 0 0 100.52 52.43
  L 99.44 52.76
  Q 98.76 52.98 98.68 52.27
  L 98.33 49.23"
/>
<path stroke="#0c4f7f" vector-effect="non-scaling-stroke" d="
  M 45.90 36.75
  L 41.13 35.79"
/>
<path stroke="#884ffb" vector-effect="non-scaling-stroke" d="
  M 96.31 36.02
  Q 95.84 36.31 95.76 36.50"
/>
<path stroke="#4b02f6" vector-effect="non-scaling-stroke" d="
  M 103.49 57.10
  Q 102.62 58.91 101.54 59.30
  A 0.58 0.58 0.0 0 1 100.76 58.72
  Q 100.84 57.14 99.29 56.76
  A 0.88 0.87 -85.4 0 1 98.63 55.98
  L 98.25 51.48"
/>
<path stroke="#ba02f7" vector-effect="non-scaling-stroke" d="
  M 63.23 25.44
  Q 62.72 24.71 60.96 25.14"
/>
<path stroke="#453033" vector-effect="non-scaling-stroke" d="
  M 92.02 35.05
  Q 90.95 34.98 90.04 33.43"
/>
<path stroke="#3d8081" vector-effect="non-scaling-stroke" d="
  M 90.04 33.43
  Q 85.52 26.91 77.77 25.77"
/>
<path stroke="#0c8083" vector-effect="non-scaling-stroke" d="
  M 103.97 68.86
  Q 103.24 69.26 103.82 71.36"
/>
<path stroke="#1e0238" vector-effect="non-scaling-stroke" d="
  M 103.82 71.36
  L 96.36 74.80"
/>
<path stroke="#190381" vector-effect="non-scaling-stroke" d="
  M 96.36 74.80
  Q 87.71 84.58 76.95 90.99"
/>
<path stroke="#0c8083" vector-effect="non-scaling-stroke" d="
  M 76.95 90.99
  L 69.06 94.11"
/>
<path stroke="#190212" vector-effect="non-scaling-stroke" d="
  M 69.06 94.11
  L 68.92 92.28"
/>
<path stroke="#190381" vector-effect="non-scaling-stroke" d="
  M 68.92 92.28
  Q 73.39 90.48 76.58 87.30
  Q 76.90 86.97 76.76 86.53
  L 76.42 85.50"
/>
<path stroke="#870381" vector-effect="non-scaling-stroke" d="
  M 76.42 85.50
  Q 79.74 83.19 83.53 82.26"
/>
<path stroke="#1d025c" vector-effect="non-scaling-stroke" d="
  M 83.53 82.26
  C 88.00 81.24 90.75 76.36 92.94 72.30"
/>
<path stroke="#194e8c" vector-effect="non-scaling-stroke" d="
  M 95.36 50.49
  L 95.12 52.52"
/>
<path stroke="#1d028c" vector-effect="non-scaling-stroke" d="
  M 95.12 52.52
  L 94.62 57.04"
/>
<path stroke="#100110" vector-effect="non-scaling-stroke" d="
  M 94.62 57.04
  Q 94.50 56.05 94.06 55.41
  A 0.64 0.63 27.7 0 0 92.90 55.77
  Q 92.92 60.12 91.07 64.05
  Q 90.86 64.49 90.82 64.01
  L 90.49 60.04
  Q 90.45 59.53 89.98 59.33
  Q 89.07 58.95 88.46 59.78"
/>
<path stroke="#107e8e" vector-effect="non-scaling-stroke" d="
  M 88.46 59.78
  Q 88.64 59.76 88.44 59.29"
/>
<path stroke="#194e8c" vector-effect="non-scaling-stroke" d="
  M 88.44 59.29
  L 87.88 52.69
  A 1.46 1.41 -16.8 0 0 85.75 51.60
  Q 85.45 51.76 85.04 53.31"
/>
<path stroke="#100110" vector-effect="non-scaling-stroke" d="
  M 85.04 53.31
  Q 85.13 52.34 84.82 51.93
  A 0.29 0.29 0.0 0 0 84.30 52.07
  Q 84.19 53.12 83.29 52.83
  Q 82.73 52.65 82.57 53.21
  L 82.21 54.46"
/>
<path stroke="#107e8e" vector-effect="non-scaling-stroke" d="
  M 82.21 54.46
  C 82.56 43.99 75.40 40.85 66.52 39.81"
/>
<path stroke="#4a7f8e" vector-effect="non-scaling-stroke" d="
  M 66.52 39.81
  L 57.29 38.74"
/>
<path stroke="#1d028c" vector-effect="non-scaling-stroke" d="
  M 57.29 38.74
  L 59.86 35.17
  Q 60.17 34.74 59.63 34.73
  L 59.26 34.72"
/>
<path stroke="#430255" vector-effect="non-scaling-stroke" d="
  M 62.56 33.64
  Q 61.14 34.76 60.57 36.21
  Q 60.09 37.42 61.00 36.49
  L 64.91 32.52"
/>
<path stroke="#360248" vector-effect="non-scaling-stroke" d="
  M 78.57 24.41
  Q 77.92 25.01 77.77 25.77"
/>
<path stroke="#7081c5" vector-effect="non-scaling-stroke" d="
  M 77.77 25.77
  Q 75.57 25.27 73.74 25.87"
/>
<path stroke="#b203c4" vector-effect="non-scaling-stroke" d="
  M 73.74 25.87
  L 63.34 27.10"
/>
<path stroke="#3680c5" vector-effect="non-scaling-stroke" d="
  M 63.34 27.10
  Q 62.40 25.43 59.97 26.88"
/>
<path stroke="#7102bf" vector-effect="non-scaling-stroke" d="
  M 59.97 26.88
  Q 59.45 25.92 63.23 25.44"
/>
<path stroke="#b203c4" vector-effect="non-scaling-stroke" d="
  M 63.23 25.44
  L 69.75 24.11"
/>
<path stroke="#1950fa" vector-effect="non-scaling-stroke" d="
  M 98.01 52.91
  L 96.52 62.43
  Q 96.48 62.65 96.27 62.59
  Q 96.10 62.53 95.94 62.48
  Q 95.48 62.33 95.54 61.86
  Q 96.16 57.15 95.12 52.52"
/>
<path stroke="#1a0387" vector-effect="non-scaling-stroke" d="
  M 98.37 21.90
  L 97.76 22.04
  A 0.46 0.46 0.0 0 0 97.46 22.73
  L 99.30 25.70
  A 0.16 0.08 26.6 0 0 99.33 25.74
  Q 100.65 26.60 100.52 24.56"
/>
<path stroke="#453033" vector-effect="non-scaling-stroke" d="
  M 89.24 33.46
  L 92.77 37.99"
/>
<path stroke="#100110" vector-effect="non-scaling-stroke" d="
  M 95.27 49.21
  L 94.86 50.23
  A 0.29 0.29 0.0 0 1 94.30 50.15
  Q 93.57 44.35 91.65 38.82
  C 91.42 38.16 90.20 37.19 89.66 36.29
  C 84.86 28.29 73.69 27.35 65.84 30.79
  Q 65.45 30.96 65.31 31.37
  L 64.91 32.52"
/>
<path stroke="#360248" vector-effect="non-scaling-stroke" d="
  M 64.91 32.52
  Q 63.70 32.58 62.56 33.64"
/>
<path stroke="#100110" vector-effect="non-scaling-stroke" d="
  M 62.56 33.64
  Q 60.56 32.52 59.26 34.72"
/>
<path stroke="#10027f" vector-effect="non-scaling-stroke" d="
  M 59.26 34.72
  L 55.94 38.59"
/>
<path stroke="#3d8081" vector-effect="non-scaling-stroke" d="
  M 55.94 38.59
  L 48.57 38.75"
/>
<path stroke="#6d8081" vector-effect="non-scaling-stroke" d="
  M 48.57 38.75
  L 37.22 39.05"
/>
<path stroke="#7fafb1" vector-effect="non-scaling-stroke" d="
  M 90.04 33.43
  Q 89.59 33.58 89.24 33.46"
/>
<path stroke="#3d8081" vector-effect="non-scaling-stroke" d="
  M 89.24 33.46
  Q 83.21 26.94 73.45 27.47"
/>
<path stroke="#b980fd" vector-effect="non-scaling-stroke" d="
  M 73.45 27.47
  Q 73.41 26.27 73.74 25.87"
/>
<path stroke="#037f81" vector-effect="non-scaling-stroke" d="
  M 58.50 31.33
  Q 53.33 33.28 49.56 36.31
  Q 47.78 37.75 45.90 36.75"
/>
<path stroke="#0cccfc" vector-effect="non-scaling-stroke" d="
  M 45.90 36.75
  Q 45.77 35.52 48.06 34.00"
/>
<path stroke="#037f81" vector-effect="non-scaling-stroke" d="
  M 84.25 58.26
  Q 83.45 66.66 83.53 69.00
  Q 83.67 73.32 87.47 70.57
  A 1.82 1.79 -17.6 0 0 88.22 69.15
  L 88.46 59.78"
/>
<path stroke="#14015a" vector-effect="non-scaling-stroke" d="
  M 91.96 67.46
  Q 88.94 76.41 82.04 80.42"
/>
<path stroke="#7f027f" vector-effect="non-scaling-stroke" d="
  M 82.04 80.42
  Q 73.58 81.80 69.75 89.54"
/>
<path stroke="#100110" vector-effect="non-scaling-stroke" d="
  M 69.75 89.54
  Q 69.50 89.60 69.26 89.91
  Q 68.94 90.31 68.64 89.90
  Q 68.33 89.46 68.50 88.99
  Q 68.93 87.88 70.52 85.29
  Q 70.80 84.83 70.28 84.98
  Q 61.71 87.37 53.68 83.23
  Q 53.31 83.04 52.91 83.00
  L 48.83 82.59"
/>
<path stroke="#037f81" vector-effect="non-scaling-stroke" d="
  M 48.83 82.59
  Q 49.97 82.03 50.31 81.51"
/>
<path stroke="#720281" vector-effect="non-scaling-stroke" d="
  M 50.31 81.51
  Q 51.99 81.40 52.44 81.56
  Q 60.32 84.41 66.60 84.08"
/>
<path stroke="#10027f" vector-effect="non-scaling-stroke" d="
  M 66.60 84.08
  C 73.84 82.57 79.07 77.05 77.85 69.58
  Q 77.77 69.08 77.36 68.77
  Q 76.75 68.30 77.17 67.68
  A 0.61 0.61 0.0 0 1 78.21 67.75
  L 81.49 74.21
  A 0.52 0.52 0.0 0 0 82.47 73.99
  Q 82.53 71.89 81.75 70.20"
/>
<path stroke="#9001d6" vector-effect="non-scaling-stroke" d="
  M 83.53 82.26
  Q 83.87 81.05 82.04 80.42"
/>
<path stroke="#8c03fb" vector-effect="non-scaling-stroke" d="
  M 76.42 85.50
  L 69.86 90.33"
/>
<path stroke="#2202b2" vector-effect="non-scaling-stroke" d="
  M 102.35 78.82
  L 96.29 78.70"
/>
<path stroke="#3936b3" vector-effect="non-scaling-stroke" d="
  M 96.29 78.70
  Q 97.90 77.40 98.00 76.01"
/>
<path stroke="#2202b2" vector-effect="non-scaling-stroke" d="
  M 98.00 76.01
  Q 98.10 75.46 97.79 75.21
  Q 97.59 75.04 96.36 74.80"
/>
<path stroke="#3dfdfe" vector-effect="non-scaling-stroke" d="
  M 56.79 104.75
  L 49.42 104.17
  Q 49.05 104.14 49.41 104.03
  Q 49.56 103.98 49.71 103.93
  A 0.13 0.13 0.0 0 0 49.68 103.68
  L 43.52 102.89
  A 0.71 0.71 0.0 0 1 42.91 102.34
  L 42.80 101.88
  Q 42.65 101.21 43.33 101.07
  L 44.50 100.83"
/>
<path stroke="#0d7f89" vector-effect="non-scaling-stroke" d="
  M 44.50 100.83
  Q 54.26 101.61 63.75 99.23"
/>
<path stroke="#11d4dd" vector-effect="non-scaling-stroke" d="
  M 63.75 99.23
  L 71.12 97.20
  Q 71.69 97.05 71.41 96.53
  Q 71.24 96.21 70.80 96.39
  Q 67.23 97.76 63.52 98.30"
/>
<path stroke="#0d7f89" vector-effect="non-scaling-stroke" d="
  M 63.52 98.30
  Q 53.99 100.69 44.60 99.47"
/>
<path stroke="#1e9ea6" vector-effect="non-scaling-stroke" d="
  M 44.60 99.47
  L 51.52 98.13"
/>
<path stroke="#107e8e" vector-effect="non-scaling-stroke" d="
  M 51.52 98.13
  L 69.06 94.11"
/>
<path stroke="#1080fc" vector-effect="non-scaling-stroke" d="
  M 76.95 90.99
  L 76.21 91.89
  Q 76.01 92.13 76.32 92.10
  Q 79.09 91.92 81.43 90.46"
/>
<path stroke="#27b4fe" vector-effect="non-scaling-stroke" d="
  M 81.43 90.46
  Q 81.42 91.28 82.04 91.59"
/>
<path stroke="#0cccfc" vector-effect="non-scaling-stroke" d="
  M 82.04 91.59
  L 77.88 94.24
  Q 77.40 94.54 77.97 94.54
  C 85.37 94.46 89.40 95.02 94.21 90.28"
/>
<path stroke="#1080fc" vector-effect="non-scaling-stroke" d="
  M 94.21 90.28
  Q 99.55 86.12 102.35 78.82"
/>
<path stroke="#157eb4" vector-effect="non-scaling-stroke" d="
  M 102.35 78.82
  L 103.82 71.36"
/>
<path stroke="#8c018c" vector-effect="non-scaling-stroke" d="
  M 69.75 89.54
  Q 69.65 89.87 69.86 90.33"
/>
<path stroke="#1d028c" vector-effect="non-scaling-stroke" d="
  M 69.86 90.33
  Q 68.46 91.27 68.92 92.28"
/>
<path stroke="#2b2035" vector-effect="non-scaling-stroke" d="
  M 51.52 98.13
  L 49.01 97.38"
/>
<path stroke="#4b0188" vector-effect="non-scaling-stroke" d="
  M 49.01 97.38
  L 51.99 97.20"
/>
<path stroke="#1d028c" vector-effect="non-scaling-stroke" d="
  M 51.99 97.20
  Q 54.16 97.55 54.90 96.42
  A 0.52 0.51 -57.1 0 0 54.75 95.70
  L 46.91 90.63
  A 0.39 0.39 0.0 0 0 46.41 91.21
  C 47.51 92.47 48.81 93.94 50.32 94.65
  Q 51.87 95.38 51.09 96.12"
/>
<path stroke="#4b0188" vector-effect="non-scaling-stroke" d="
  M 51.09 96.12
  C 47.37 95.29 44.36 90.89 40.89 86.83
  A 0.28 0.28 0.0 0 0 40.42 87.12
  L 42.80 92.70"
/>
<path stroke="#107e8e" vector-effect="non-scaling-stroke" d="
  M 42.80 92.70
  L 40.79 90.99"
/>
<path stroke="#34368d" vector-effect="non-scaling-stroke" d="
  M 40.79 90.99
  Q 40.70 90.27 40.24 90.30"
/>
<path stroke="#1d028c" vector-effect="non-scaling-stroke" d="
  M 40.24 90.30
  Q 38.48 85.72 36.02 84.01"
/>
<path stroke="#3438fc" vector-effect="non-scaling-stroke" d="
  M 98.00 76.01
  Q 97.53 76.20 97.28 76.51
  Q 90.68 84.95 81.43 90.46"
/>
<path stroke="#0cccfc" vector-effect="non-scaling-stroke" d="
  M 88.44 59.29
  Q 88.32 58.19 87.95 57.84
  A 0.43 0.42 -73.4 0 0 87.24 58.23
  Q 87.51 59.77 85.98 60.01
  A 0.24 0.24 0.0 0 1 85.75 59.64
  Q 86.19 59.02 85.54 58.25
  Q 85.19 57.83 84.69 58.06
  L 84.25 58.26"
/>
<path stroke="#0c4f7f" vector-effect="non-scaling-stroke" d="
  M 84.25 58.26
  L 85.04 53.31"
/>
<path stroke="#3dfdfe" vector-effect="non-scaling-stroke" d="
  M 66.52 39.81
  L 65.25 41.58
  Q 64.82 42.18 65.56 42.21
  Q 68.78 42.33 70.64 44.17"
/>
<path stroke="#61b5fe" vector-effect="non-scaling-stroke" d="
  M 70.64 44.17
  L 68.89 44.23"
/>
<path stroke="#3d8081" vector-effect="non-scaling-stroke" d="
  M 68.89 44.23
  L 51.75 42.81"
/>
<path stroke="#a7feff" vector-effect="non-scaling-stroke" d="
  M 51.75 42.81
  L 51.29 41.63
  A 0.60 0.60 0.0 0 0 50.73 41.25
  L 48.52 41.25
  Q 48.03 41.25 48.13 40.78
  L 48.57 38.75"
/>
<path stroke="#037f81" vector-effect="non-scaling-stroke" d="
  M 82.21 54.46
  Q 82.94 56.87 81.86 60.54"
/>
<path stroke="#0cccfc" vector-effect="non-scaling-stroke" d="
  M 81.86 60.54
  Q 80.51 54.41 79.50 48.55
  Q 78.99 45.59 76.25 44.17
  A 0.43 0.42 -3.1 0 0 75.70 44.78
  Q 77.79 47.91 76.12 48.12"
/>
<path stroke="#27b4fe" vector-effect="non-scaling-stroke" d="
  M 76.12 48.12
  Q 73.77 45.32 70.64 44.17"
/>
<path stroke="#4a81fc" vector-effect="non-scaling-stroke" d="
  M 57.29 38.74
  L 55.94 38.59"
/>
<path stroke="#7f027f" vector-effect="non-scaling-stroke" d="
  M 73.45 27.47
  Q 65.79 27.55 58.50 31.33"
/>
<path stroke="#7f7ffd" vector-effect="non-scaling-stroke" d="
  M 58.50 31.33
  Q 58.20 28.04 63.34 27.10"
/>
<path stroke="#6d8081" vector-effect="non-scaling-stroke" d="
  M 51.75 42.81
  Q 33.47 42.32 15.52 45.46
  A 1.36 1.35 3.9 0 0 14.46 46.38
  L 12.78 51.51"
/>
<path stroke="#afafb1" vector-effect="non-scaling-stroke" d="
  M 12.78 51.51
  Q 11.95 51.59 11.95 51.19"
/>
<path stroke="#7280fe" vector-effect="non-scaling-stroke" d="
  M 50.31 81.51
  L 46.10 78.48"
/>
<path stroke="#107e8e" vector-effect="non-scaling-stroke" d="
  M 48.83 82.59
  L 43.78 79.99
  Q 43.35 79.77 42.86 79.78
  L 40.73 79.81"
/>
<path stroke="#0c4f7f" vector-effect="non-scaling-stroke" d="
  M 81.86 60.54
  L 81.75 70.20"
/>
<path stroke="#1950fa" vector-effect="non-scaling-stroke" d="
  M 81.75 70.20
  Q 79.99 68.96 80.41 64.53
  A 0.84 0.84 0.0 0 0 79.73 63.63
  Q 78.72 63.44 78.33 62.45
  A 1.03 0.89 -59.2 0 1 78.27 62.11
  Q 78.26 58.55 77.64 55.04
  A 0.48 0.48 0.0 0 0 76.76 54.87
  L 76.15 55.80"
/>
<path stroke="#7f03fc" vector-effect="non-scaling-stroke" d="
  M 66.60 84.08
  L 67.23 83.01
  Q 67.41 82.71 67.06 82.66
  L 63.30 82.10
  A 0.64 0.63 46.4 0 1 63.33 80.84
  Q 73.26 79.93 74.33 71.85"
/>
<path stroke="#1950fa" vector-effect="non-scaling-stroke" d="
  M 94.21 90.28
  L 83.83 91.18
  Q 83.56 91.21 83.49 90.94
  Q 83.46 90.82 83.43 90.68"
/>
<path stroke="#3438fc" vector-effect="non-scaling-stroke" d="
  M 96.29 78.70
  Q 90.84 85.58 83.43 90.68"
/>
<path stroke="#3084fc" vector-effect="non-scaling-stroke" d="
  M 83.43 90.68
  L 82.04 91.59"
/>
<path stroke="#0d7f89" vector-effect="non-scaling-stroke" d="
  M 35.52 91.28
  Q 38.68 94.90 42.41 95.90"
/>
<path stroke="#282130" vector-effect="non-scaling-stroke" d="
  M 42.41 95.90
  Q 41.01 98.33 44.60 99.47"
/>
<path stroke="#1a5767" vector-effect="non-scaling-stroke" d="
  M 63.52 98.30
  Q 63.83 98.81 63.75 99.23"
/>
<path stroke="#478089" vector-effect="non-scaling-stroke" d="
  M 44.50 100.83
  L 29.89 98.79"
/>
<path stroke="#303788" vector-effect="non-scaling-stroke" d="
  M 30.39 94.96
  Q 31.37 95.78 32.45 95.99
  Q 33.21 96.13 32.79 95.48
  Q 32.36 94.81 31.58 94.30"
/>
<path stroke="#27b4fe" vector-effect="non-scaling-stroke" d="
  M 40.79 90.99
  L 35.52 91.28"
/>
<path stroke="#303788" vector-effect="non-scaling-stroke" d="
  M 35.52 91.28
  L 34.12 90.01"
/>
<path stroke="#3438fc" vector-effect="non-scaling-stroke" d="
  M 40.24 90.30
  C 37.57 89.13 36.49 85.69 32.61 87.65"
/>
<path stroke="#4b02f6" vector-effect="non-scaling-stroke" d="
  M 51.09 96.12
  Q 51.18 96.72 51.99 97.20"
/>
<path stroke="#5920a0" vector-effect="non-scaling-stroke" d="
  M 49.01 97.38
  Q 47.73 97.70 48.69 97.40"
/>
<path stroke="#3e7ff8" vector-effect="non-scaling-stroke" d="
  M 48.69 97.40
  L 42.80 92.70"
/>
<path stroke="#1e9ea6" vector-effect="non-scaling-stroke" d="
  M 48.69 97.40
  Q 45.57 98.64 42.41 95.90"
/>
<path stroke="#3084fc" vector-effect="non-scaling-stroke" d="
  M 76.12 48.12
  Q 76.91 49.41 75.96 50.73"
/>
<path stroke="#9538fe" vector-effect="non-scaling-stroke" d="
  M 74.56 50.37
  Q 73.37 47.73 71.91 47.96"
/>
<path stroke="#273780" vector-effect="non-scaling-stroke" d="
  M 68.89 44.23
  L 71.91 47.96"
/>
<path stroke="#720281" vector-effect="non-scaling-stroke" d="
  M 71.91 47.96
  Q 74.44 53.57 73.99 59.45
  Q 73.95 59.92 74.37 59.70
  Q 74.71 59.53 74.49 59.26
  Q 75.42 54.60 74.56 50.37"
/>
<path stroke="#273780" vector-effect="non-scaling-stroke" d="
  M 74.56 50.37
  Q 75.14 49.98 75.96 50.73"
/>
<path stroke="#0c4f7f" vector-effect="non-scaling-stroke" d="
  M 75.96 50.73
  L 76.15 55.80"
/>
<path stroke="#10027f" vector-effect="non-scaling-stroke" d="
  M 76.15 55.80
  Q 76.15 64.41 74.33 71.85"
/>
<path stroke="#720281" vector-effect="non-scaling-stroke" d="
  M 74.33 71.85
  Q 70.22 75.98 66.61 76.69"
/>
<path stroke="#100110" vector-effect="non-scaling-stroke" d="
  M 66.61 76.69
  L 65.26 76.44
  A 0.56 0.56 0.0 0 1 65.22 75.34
  L 68.73 74.40
  A 0.23 0.23 0.0 0 0 68.67 73.95
  Q 66.69 74.01 64.85 74.63
  C 62.15 75.53 59.72 75.25 57.13 74.80
  Q 56.21 74.63 56.99 74.12
  Q 58.06 73.42 59.98 73.73"
/>
<path stroke="#0e237f" vector-effect="non-scaling-stroke" d="
  M 59.98 73.73
  Q 67.40 74.53 69.10 67.86"
/>
<path stroke="#037f81" vector-effect="non-scaling-stroke" d="
  M 69.10 67.86
  Q 70.62 58.03 67.77 50.61"
/>
<path stroke="#3d8081" vector-effect="non-scaling-stroke" d="
  M 67.77 50.61
  C 57.96 43.02 31.27 46.51 19.48 48.96
  Q 16.12 49.67 15.49 53.19"
/>
<path stroke="#037f81" vector-effect="non-scaling-stroke" d="
  M 15.49 53.19
  Q 15.37 53.27 15.24 53.35"
/>
<path stroke="#453033" vector-effect="non-scaling-stroke" d="
  M 12.69 51.90
  Q 12.77 51.76 12.78 51.51"
/>
<path stroke="#7f028e" vector-effect="non-scaling-stroke" d="
  M 66.61 76.69
  L 46.10 78.48"
/>
<path stroke="#107e8e" vector-effect="non-scaling-stroke" d="
  M 46.10 78.48
  C 44.00 76.03 42.15 75.00 38.69 75.25
  C 31.01 75.81 21.87 76.16 14.55 73.61"
/>
<path stroke="#1b228c" vector-effect="non-scaling-stroke" d="
  M 59.98 73.73
  C 52.35 72.13 44.37 69.54 36.86 69.64
  Q 30.00 69.72 23.35 71.00"
/>
<path stroke="#0ea0fd" vector-effect="non-scaling-stroke" d="
  M 69.10 67.86
  Q 66.54 67.20 66.26 67.82
  A 3.10 2.95 -67.2 0 1 62.47 69.47
  L 52.28 65.56"
/>
<path stroke="#27b4fe" vector-effect="non-scaling-stroke" d="
  M 52.28 65.56
  L 41.27 61.70"
/>
<path stroke="#06defe" vector-effect="non-scaling-stroke" d="
  M 41.27 61.70
  Q 36.72 60.19 31.80 61.04
  Q 31.37 61.11 31.05 60.81
  Q 29.13 59.02 27.24 61.33
  A 0.90 0.89 21.4 0 1 26.49 61.65
  Q 20.80 61.31 16.10 64.46
  A 0.37 0.37 0.0 0 1 15.53 64.18
  L 15.49 63.24
  Q 15.47 62.99 15.33 63.18
  L 15.09 63.49"
/>
<path stroke="#3dfdfe" vector-effect="non-scaling-stroke" d="
  M 67.77 50.61
  L 64.69 51.40
  Q 64.20 51.53 64.00 52.00
  Q 63.45 53.30 62.21 53.92
  A 0.72 0.72 0.0 0 1 61.46 53.84
  Q 60.09 52.80 59.44 52.80
  C 47.75 52.76 30.85 51.15 15.49 53.19"
/>
<path stroke="#3258fc" vector-effect="non-scaling-stroke" d="
  M 52.28 65.56
  Q 51.77 65.69 51.56 65.90
  Q 51.13 66.31 51.67 66.56
  L 59.99 70.42
  Q 60.75 70.77 59.92 70.88
  Q 57.85 71.16 55.78 70.62
  C 50.09 69.13 44.23 68.51 38.59 66.84
  Q 38.00 66.66 38.01 66.04
  Q 38.01 65.91 37.99 65.79
  Q 37.91 65.21 37.33 65.18
  C 33.67 64.98 30.59 64.24 27.87 67.90
  A 1.18 1.15 -74.1 0 1 27.05 68.37
  Q 24.37 68.68 23.35 71.00"
/>
<path stroke="#34368d" vector-effect="non-scaling-stroke" d="
  M 23.35 71.00
  L 17.96 70.99"
/>
<path stroke="#2a96fe" vector-effect="non-scaling-stroke" d="
  M 41.27 61.70
  Q 38.24 61.17 35.24 61.27
  C 30.25 61.42 25.70 65.32 21.20 67.39
  Q 19.00 68.40 17.96 70.99"
/>
<path stroke="#13608e" vector-effect="non-scaling-stroke" d="
  M 17.96 70.99
  L 15.55 70.98"
/>
<path stroke="#61b5fe" vector-effect="non-scaling-stroke" d="
  M 29.57 93.52
  Q 29.40 93.85 28.79 93.74"
/>
<path stroke="#13608e" vector-effect="non-scaling-stroke" d="
  M 83.59 47.47
  C 85.37 44.67 84.60 38.51 80.40 38.50
  A 0.40 0.40 0.0 0 0 80.21 39.25
  Q 84.98 41.88 82.73 47.01
  A 0.49 0.49 0.0 0 0 83.59 47.47"
/>
<path stroke="#7b7c7d" vector-effect="non-scaling-stroke" d="
  M 35.26 44.80
  C 31.25 44.61 15.75 44.70 15.12 49.04
  Q 15.03 49.64 15.50 49.25
  C 19.47 45.87 29.95 45.51 34.99 45.47"
/>
<path stroke="#1e2028" vector-effect="non-scaling-stroke" d="
  M 34.99 45.47
  L 41.58 44.91
  A 0.18 0.18 0.0 0 0 41.56 44.56
  L 35.26 44.80"
/>
<path stroke="#969ba2" vector-effect="non-scaling-stroke" d="
  M 34.99 45.47
  Q 35.29 45.08 35.26 44.80"
/>
<path stroke="#1e2028" vector-effect="non-scaling-stroke" d="
  M 56.84 45.19
  A 0.35 0.35 0.0 0 0 56.77 44.50
  L 55.31 44.50
  Q 54.29 44.50 55.20 44.95
  Q 56.01 45.35 56.84 45.19"
/>
<path stroke="#6d8081" vector-effect="non-scaling-stroke" d="
  M 62.73 46.85
  C 68.53 48.45 68.80 51.19 71.08 56.03
  Q 71.20 56.29 71.40 56.08
  Q 71.68 55.80 71.53 55.46
  Q 70.96 54.13 70.73 53.00
  C 69.94 49.14 67.46 46.86 63.51 46.17"
/>
<path stroke="#1e2028" vector-effect="non-scaling-stroke" d="
  M 63.51 46.17
  Q 61.51 45.00 59.17 45.28
  Q 58.43 45.37 59.00 45.86
  C 59.55 46.33 59.98 46.43 60.76 46.25
  Q 62.13 45.93 62.73 46.85"
/>
<path stroke="#889fa6" vector-effect="non-scaling-stroke" d="
  M 63.51 46.17
  Q 62.58 46.17 62.73 46.85"
/>
<path stroke="#194e8c" vector-effect="non-scaling-stroke" d="
  M 17.82 73.08
  Q 23.23 75.41 31.55 73.62
  A 0.20 0.20 0.0 0 0 31.51 73.23
  Q 24.72 73.34 18.00 72.44
  Q 15.57 72.12 17.82 73.08"
/>
</g>
<path fill="#03fcfe" d="
  M 111.63 59.90
  C 112.90 59.67 115.32 60.27 116.11 59.98
  Q 116.50 59.84 116.73 59.55
  Q 117.07 59.13 116.54 59.00
  L 111.05 57.63
  L 111.34 46.88
  Q 114.30 49.07 113.34 54.43
  Q 113.28 54.73 113.54 54.57
  Q 113.66 54.49 113.76 54.40
  Q 113.92 54.24 113.97 53.91
  Q 114.30 51.86 114.29 49.73
  Q 115.66 49.13 117.13 49.59
  Q 117.66 49.75 117.87 49.23
  Q 118.89 46.74 117.94 43.42
  Q 118.13 41.48 117.54 39.59
  Q 117.36 33.36 115.46 27.87
  L 113.53 22.49
  L 111.03 17.53
  L 109.33 15.07
  Q 109.01 14.60 108.46 14.72
  C 102.27 16.05 100.26 15.11 94.78 12.54
  L 88.50 11.16
  Q 87.56 10.96 88.51 10.78
  Q 90.66 10.37 92.96 10.71
  Q 96.96 11.34 100.37 13.49
  A 0.32 0.32 0.0 0 0 100.65 13.53
  Q 100.82 13.48 100.97 13.41
  A 0.30 0.30 0.0 0 0 101.00 12.88
  L 93.98 8.72
  Q 87.71 5.93 80.78 7.47
  A 0.45 0.44 22.4 0 1 80.44 6.66
  C 91.93 -0.54 106.24 4.98 112.21 16.07
  Q 122.46 35.13 118.96 56.94
  Q 118.31 61.01 115.53 63.57
  Q 115.11 63.95 114.57 63.79
  Q 111.93 63.04 111.63 59.90
  Z"
/>
<path fill="#140307" d="
  M 93.98 8.72
  L 101.00 12.88
  A 0.30 0.30 0.0 0 1 100.97 13.41
  Q 100.82 13.48 100.65 13.53
  A 0.32 0.32 0.0 0 1 100.37 13.49
  Q 96.96 11.34 92.96 10.71
  Q 94.41 10.04 93.98 8.72
  Z"
/>
<path fill="#160213" d="
  M 94.78 12.54
  C 100.26 15.11 102.27 16.05 108.46 14.72
  Q 109.01 14.60 109.33 15.07
  L 111.03 17.53
  Q 110.95 17.83 110.57 18.13
  Q 110.22 18.40 109.90 18.11
  L 109.01 17.30
  Q 108.62 16.94 108.09 16.93
  Q 105.21 16.88 102.66 17.94
  Q 101.28 16.69 99.13 15.96
  A 0.47 0.47 0.0 0 0 98.61 16.70
  Q 99.30 17.55 99.14 16.82
  Q 95.49 22.87 94.78 12.54
  Z"
/>
<path fill="#1facbb" fill-opacity="0.996" d="
  M 71.33 14.20
  L 58.79 18.17
  A 0.56 0.56 0.0 0 1 58.26 17.20
  Q 58.64 16.88 58.85 17.39
  Q 64.27 13.71 71.33 14.20
  Z"
/>
<path fill="#140307" d="
  M 71.33 14.20
  Q 67.08 17.28 67.38 19.01
  Q 60.24 19.64 52.94 22.75
  Q 53.28 21.36 52.19 20.78
  Q 56.31 20.32 56.82 17.04
  Q 58.31 16.72 58.85 17.39
  Q 58.64 16.88 58.26 17.20
  A 0.56 0.56 0.0 0 0 58.79 18.17
  L 71.33 14.20
  Z"
/>
<path fill="#1944fb" d="
  M 102.66 17.94
  L 103.86 19.55
  Q 106.72 23.12 108.37 27.44
  Q 110.51 33.74 111.96 40.00
  Q 112.02 40.23 112.15 40.34
  Q 112.32 40.47 112.54 40.50
  A 0.46 0.45 -0.5 0 0 113.04 40.00
  L 112.69 36.75
  Q 112.62 36.10 113.26 36.21
  L 115.40 36.56
  A 0.75 0.75 0.0 0 1 115.99 37.09
  Q 116.43 38.57 117.54 39.59
  Q 118.13 41.48 117.94 43.42
  Q 116.12 43.91 116.03 43.64
  A 1.08 1.07 34.8 0 0 113.93 44.01
  L 114.29 49.73
  Q 114.30 51.86 113.97 53.91
  Q 113.92 54.24 113.76 54.40
  Q 113.66 54.49 113.54 54.57
  Q 113.28 54.73 113.34 54.43
  Q 114.30 49.07 111.34 46.88
  C 110.71 36.25 107.59 24.53 99.14 16.82
  Q 99.30 17.55 98.61 16.70
  A 0.47 0.47 0.0 0 1 99.13 15.96
  Q 101.28 16.69 102.66 17.94
  Z"
/>
<path fill="#1d03fa" d="
  M 56.82 17.04
  Q 56.31 20.32 52.19 20.78
  L 50.57 20.71
  A 0.58 0.58 0.0 0 1 50.27 19.65
  L 54.76 16.70
  Q 55.15 16.45 55.61 16.49
  Q 56.34 16.54 56.82 17.04
  Z"
/>
<path fill="#270069" d="
  M 111.03 17.53
  L 113.53 22.49
  L 111.55 19.95
  Q 111.23 19.54 110.73 19.67
  L 107.83 20.46
  A 0.68 0.66 -26.7 0 1 107.14 20.24
  Q 105.85 18.65 103.86 19.55
  L 102.66 17.94
  Q 105.21 16.88 108.09 16.93
  Q 108.62 16.94 109.01 17.30
  L 109.90 18.11
  Q 110.22 18.40 110.57 18.13
  Q 110.95 17.83 111.03 17.53
  Z"
/>
<path fill="#03fcfe" d="
  M 92.22 23.20
  Q 103.52 31.40 105.25 44.96
  Q 107.15 56.91 102.00 66.74
  L 100.57 68.53
  L 103.49 57.10
  Q 103.90 56.30 103.72 55.02
  C 104.17 47.37 100.82 42.23 96.31 36.02
  L 94.93 33.62
  Q 94.25 32.44 94.50 33.78
  Q 94.75 35.17 95.76 36.50
  Q 98.18 42.60 98.33 49.23
  L 98.25 51.48
  Q 97.85 51.65 98.01 52.91
  Q 96.16 52.88 95.36 50.49
  Q 95.76 49.63 95.27 49.21
  Q 95.22 43.31 92.77 37.99
  Q 92.74 36.31 92.02 35.05
  Q 87.69 26.29 78.57 24.41
  Q 74.22 23.22 69.75 24.11
  Q 64.91 23.41 60.96 25.14
  L 56.09 26.73
  Q 47.14 29.32 41.13 35.79
  L 38.81 35.56
  Q 38.75 35.35 38.74 35.18
  Q 38.73 35.02 38.87 34.85
  Q 44.72 27.14 52.94 22.75
  Q 60.24 19.64 67.38 19.01
  Q 81.20 16.74 92.22 23.20
  Z"
/>
<path fill="#2500b0" d="
  M 113.53 22.49
  L 115.46 27.87
  C 113.46 24.05 111.07 26.57 108.37 27.44
  Q 106.72 23.12 103.86 19.55
  Q 105.85 18.65 107.14 20.24
  A 0.68 0.66 -26.7 0 0 107.83 20.46
  L 110.73 19.67
  Q 111.23 19.54 111.55 19.95
  L 113.53 22.49
  Z"
/>
<path fill="#160213" d="
  M 98.37 21.90
  L 97.76 22.04
  A 0.46 0.46 0.0 0 0 97.46 22.73
  L 99.30 25.70
  A 0.16 0.08 26.6 0 0 99.33 25.74
  Q 100.65 26.60 100.52 24.56
  Q 104.81 24.77 104.94 28.73
  C 105.03 31.10 105.65 33.32 105.28 35.56
  Q 105.19 36.07 105.37 36.56
  Q 107.16 41.34 105.25 44.96
  Q 103.52 31.40 92.22 23.20
  Q 92.79 21.35 93.56 20.84
  Q 95.49 19.57 96.59 21.25
  Q 96.86 21.65 97.33 21.73
  L 98.37 21.90
  Z"
/>
<path fill="#1d03fa" d="
  M 98.37 21.90
  Q 99.74 22.31 100.52 24.56
  Q 100.65 26.60 99.33 25.74
  A 0.16 0.08 26.6 0 1 99.30 25.70
  L 97.46 22.73
  A 0.46 0.46 0.0 0 1 97.76 22.04
  L 98.37 21.90
  Z"
/>
<path fill="#69038c" d="
  M 78.57 24.41
  Q 77.92 25.01 77.77 25.77
  Q 75.57 25.27 73.74 25.87
  L 63.34 27.10
  Q 62.40 25.43 59.97 26.88
  Q 59.45 25.92 63.23 25.44
  L 69.75 24.11
  Q 74.22 23.22 78.57 24.41
  Z"
/>
<path fill="#fa02fb" d="
  M 69.75 24.11
  L 63.23 25.44
  Q 62.72 24.71 60.96 25.14
  Q 64.91 23.41 69.75 24.11
  Z"
/>
<path fill="#030103" d="
  M 78.57 24.41
  Q 87.69 26.29 92.02 35.05
  Q 90.95 34.98 90.04 33.43
  Q 85.52 26.91 77.77 25.77
  Q 77.92 25.01 78.57 24.41
  Z"
/>
<path fill="#7901f2" d="
  M 63.23 25.44
  Q 59.45 25.92 59.97 26.88
  L 48.06 34.00
  Q 47.49 34.10 47.05 33.98
  A 0.39 0.39 0.0 0 1 46.92 33.28
  L 56.09 26.73
  L 60.96 25.14
  Q 62.72 24.71 63.23 25.44
  Z"
/>
<path fill="#77fefe" d="
  M 77.77 25.77
  Q 85.52 26.91 90.04 33.43
  Q 89.59 33.58 89.24 33.46
  Q 83.21 26.94 73.45 27.47
  Q 73.41 26.27 73.74 25.87
  Q 75.57 25.27 77.77 25.77
  Z"
/>
<path fill="#fa02fb" d="
  M 73.74 25.87
  Q 73.41 26.27 73.45 27.47
  Q 65.79 27.55 58.50 31.33
  Q 58.20 28.04 63.34 27.10
  L 73.74 25.87
  Z"
/>
<path fill="#1d03fa" d="
  M 115.46 27.87
  Q 117.36 33.36 117.54 39.59
  Q 116.43 38.57 115.99 37.09
  A 0.75 0.75 0.0 0 0 115.40 36.56
  L 113.26 36.21
  Q 112.62 36.10 112.69 36.75
  L 113.04 40.00
  A 0.46 0.45 -0.5 0 1 112.54 40.50
  Q 112.32 40.47 112.15 40.34
  Q 112.02 40.23 111.96 40.00
  Q 110.51 33.74 108.37 27.44
  C 111.07 26.57 113.46 24.05 115.46 27.87
  Z"
/>
<path fill="#03fcfe" d="
  M 63.34 27.10
  Q 58.20 28.04 58.50 31.33
  Q 53.33 33.28 49.56 36.31
  Q 47.78 37.75 45.90 36.75
  Q 45.77 35.52 48.06 34.00
  L 59.97 26.88
  Q 62.40 25.43 63.34 27.10
  Z"
/>
<path fill="#159cfa" d="
  M 56.09 26.73
  L 46.92 33.28
  A 0.39 0.39 0.0 0 0 47.05 33.98
  Q 47.49 34.10 48.06 34.00
  Q 45.77 35.52 45.90 36.75
  L 41.13 35.79
  Q 47.14 29.32 56.09 26.73
  Z"
/>
<path fill="#030103" d="
  M 73.45 27.47
  Q 83.21 26.94 89.24 33.46
  L 92.77 37.99
  Q 95.22 43.31 95.27 49.21
  L 94.86 50.23
  A 0.29 0.29 0.0 0 1 94.30 50.15
  Q 93.57 44.35 91.65 38.82
  C 91.42 38.16 90.20 37.19 89.66 36.29
  C 84.86 28.29 73.69 27.35 65.84 30.79
  Q 65.45 30.96 65.31 31.37
  L 64.91 32.52
  Q 63.70 32.58 62.56 33.64
  Q 60.56 32.52 59.26 34.72
  L 55.94 38.59
  L 48.57 38.75
  L 37.22 39.05
  Q 38.54 37.31 38.81 35.56
  L 41.13 35.79
  L 45.90 36.75
  Q 47.78 37.75 49.56 36.31
  Q 53.33 33.28 58.50 31.33
  Q 65.79 27.55 73.45 27.47
  Z"
/>
<path fill="#1d001d" d="
  M 95.27 49.21
  Q 95.76 49.63 95.36 50.49
  L 95.12 52.52
  L 94.62 57.04
  Q 94.50 56.05 94.06 55.41
  A 0.64 0.63 27.7 0 0 92.90 55.77
  Q 92.92 60.12 91.07 64.05
  Q 90.86 64.49 90.82 64.01
  L 90.49 60.04
  Q 90.45 59.53 89.98 59.33
  Q 89.07 58.95 88.46 59.78
  Q 88.64 59.76 88.44 59.29
  L 87.88 52.69
  A 1.46 1.41 -16.8 0 0 85.75 51.60
  Q 85.45 51.76 85.04 53.31
  Q 85.13 52.34 84.82 51.93
  A 0.29 0.29 0.0 0 0 84.30 52.07
  Q 84.19 53.12 83.29 52.83
  Q 82.73 52.65 82.57 53.21
  L 82.21 54.46
  C 82.56 43.99 75.40 40.85 66.52 39.81
  L 57.29 38.74
  L 59.86 35.17
  Q 60.17 34.74 59.63 34.73
  L 59.26 34.72
  Q 60.56 32.52 62.56 33.64
  Q 61.14 34.76 60.57 36.21
  Q 60.09 37.42 61.00 36.49
  L 64.91 32.52
  L 65.31 31.37
  Q 65.45 30.96 65.84 30.79
  C 73.69 27.35 84.86 28.29 89.66 36.29
  C 90.20 37.19 91.42 38.16 91.65 38.82
  Q 93.57 44.35 94.30 50.15
  A 0.29 0.29 0.0 0 0 94.86 50.23
  L 95.27 49.21
  Z
  M 83.59 47.47
  C 85.37 44.67 84.60 38.51 80.40 38.50
  A 0.40 0.40 0.0 0 0 80.21 39.25
  Q 84.98 41.88 82.73 47.01
  A 0.49 0.49 0.0 0 0 83.59 47.47
  Z"
/>
<path fill="#d6feff" d="
  M 33.05 34.05
  L 33.82 32.81
  A 0.78 0.78 0.0 0 1 35.26 33.31
  Q 35.18 34.08 34.68 34.69
  Q 34.47 34.94 34.13 35.04
  Q 33.61 35.19 33.44 35.04
  Q 32.79 34.48 33.05 34.05
  Z"
/>
<path fill="#69038c" d="
  M 64.91 32.52
  L 61.00 36.49
  Q 60.09 37.42 60.57 36.21
  Q 61.14 34.76 62.56 33.64
  Q 63.70 32.58 64.91 32.52
  Z"
/>
<path fill="#159cfa" d="
  M 96.31 36.02
  Q 95.84 36.31 95.76 36.50
  Q 94.75 35.17 94.50 33.78
  Q 94.25 32.44 94.93 33.62
  L 96.31 36.02
  Z"
/>
<path fill="#875f63" d="
  M 89.24 33.46
  Q 89.59 33.58 90.04 33.43
  Q 90.95 34.98 92.02 35.05
  Q 92.74 36.31 92.77 37.99
  L 89.24 33.46
  Z"
/>
<path fill="#1d03fa" d="
  M 59.26 34.72
  L 59.63 34.73
  Q 60.17 34.74 59.86 35.17
  L 57.29 38.74
  L 55.94 38.59
  L 59.26 34.72
  Z"
/>
<path fill="#fa02fb" d="
  M 96.31 36.02
  C 100.82 42.23 104.17 47.37 103.72 55.02
  Q 102.53 55.58 101.77 54.85
  Q 101.43 54.53 101.36 54.07
  L 101.20 52.86
  A 0.53 0.52 -12.5 0 0 100.52 52.43
  L 99.44 52.76
  Q 98.76 52.98 98.68 52.27
  L 98.33 49.23
  Q 98.18 42.60 95.76 36.50
  Q 95.84 36.31 96.31 36.02
  Z"
/>
<path fill="#77fefe" d="
  M 55.94 38.59
  L 57.29 38.74
  L 66.52 39.81
  L 65.25 41.58
  Q 64.82 42.18 65.56 42.21
  Q 68.78 42.33 70.64 44.17
  L 68.89 44.23
  L 51.75 42.81
  L 51.29 41.63
  A 0.60 0.60 0.0 0 0 50.73 41.25
  L 48.52 41.25
  Q 48.03 41.25 48.13 40.78
  L 48.57 38.75
  L 55.94 38.59
  Z"
/>
<path fill="#09bffe" d="
  M 80.40 38.50
  C 84.60 38.51 85.37 44.67 83.59 47.47
  A 0.49 0.49 0.0 0 1 82.73 47.01
  Q 84.98 41.88 80.21 39.25
  A 0.40 0.40 0.0 0 1 80.40 38.50
  Z"
/>
<path fill="#d6feff" d="
  M 48.57 38.75
  L 48.13 40.78
  Q 48.03 41.25 48.52 41.25
  L 50.73 41.25
  A 0.60 0.60 0.0 0 1 51.29 41.63
  L 51.75 42.81
  Q 33.47 42.32 15.52 45.46
  A 1.36 1.35 3.9 0 0 14.46 46.38
  L 12.78 51.51
  Q 11.95 51.59 11.95 51.19
  C 12.56 47.34 12.37 42.99 17.38 41.95
  Q 27.27 39.92 37.22 39.05
  L 48.57 38.75
  Z"
/>
<path fill="#03fcfe" d="
  M 66.52 39.81
  C 75.40 40.85 82.56 43.99 82.21 54.46
  Q 82.94 56.87 81.86 60.54
  Q 80.51 54.41 79.50 48.55
  Q 78.99 45.59 76.25 44.17
  A 0.43 0.42 -3.1 0 0 75.70 44.78
  Q 77.79 47.91 76.12 48.12
  Q 73.77 45.32 70.64 44.17
  Q 68.78 42.33 65.56 42.21
  Q 64.82 42.18 65.25 41.58
  L 66.52 39.81
  Z"
/>
<path fill="#030103" d="
  M 51.75 42.81
  L 68.89 44.23
  L 71.91 47.96
  Q 74.44 53.57 73.99 59.45
  Q 73.95 59.92 74.37 59.70
  Q 74.71 59.53 74.49 59.26
  Q 75.42 54.60 74.56 50.37
  Q 75.14 49.98 75.96 50.73
  L 76.15 55.80
  Q 76.15 64.41 74.33 71.85
  Q 70.22 75.98 66.61 76.69
  L 65.26 76.44
  A 0.56 0.56 0.0 0 1 65.22 75.34
  L 68.73 74.40
  A 0.23 0.23 0.0 0 0 68.67 73.95
  Q 66.69 74.01 64.85 74.63
  C 62.15 75.53 59.72 75.25 57.13 74.80
  Q 56.21 74.63 56.99 74.12
  Q 58.06 73.42 59.98 73.73
  Q 67.40 74.53 69.10 67.86
  Q 70.62 58.03 67.77 50.61
  C 57.96 43.02 31.27 46.51 19.48 48.96
  Q 16.12 49.67 15.49 53.19
  Q 15.37 53.27 15.24 53.35
  Q 14.05 52.10 12.69 51.90
  Q 12.77 51.76 12.78 51.51
  L 14.46 46.38
  A 1.36 1.35 3.9 0 1 15.52 45.46
  Q 33.47 42.32 51.75 42.81
  Z
  M 35.26 44.80
  C 31.25 44.61 15.75 44.70 15.12 49.04
  Q 15.03 49.64 15.50 49.25
  C 19.47 45.87 29.95 45.51 34.99 45.47
  L 41.58 44.91
  A 0.18 0.18 0.0 0 0 41.56 44.56
  L 35.26 44.80
  Z
  M 56.84 45.19
  A 0.35 0.35 0.0 0 0 56.77 44.50
  L 55.31 44.50
  Q 54.29 44.50 55.20 44.95
  Q 56.01 45.35 56.84 45.19
  Z
  M 62.73 46.85
  C 68.53 48.45 68.80 51.19 71.08 56.03
  Q 71.20 56.29 71.40 56.08
  Q 71.68 55.80 71.53 55.46
  Q 70.96 54.13 70.73 53.00
  C 69.94 49.14 67.46 46.86 63.51 46.17
  Q 61.51 45.00 59.17 45.28
  Q 58.43 45.37 59.00 45.86
  C 59.55 46.33 59.98 46.43 60.76 46.25
  Q 62.13 45.93 62.73 46.85
  Z"
/>
<path fill="#159cfa" d="
  M 117.94 43.42
  Q 118.89 46.74 117.87 49.23
  Q 117.66 49.75 117.13 49.59
  Q 115.66 49.13 114.29 49.73
  L 113.93 44.01
  A 1.08 1.07 34.8 0 1 116.03 43.64
  Q 116.12 43.91 117.94 43.42
  Z"
/>
<path fill="#4a6cfd" d="
  M 68.89 44.23
  L 70.64 44.17
  Q 73.77 45.32 76.12 48.12
  Q 76.91 49.41 75.96 50.73
  Q 75.14 49.98 74.56 50.37
  Q 73.37 47.73 71.91 47.96
  L 68.89 44.23
  Z"
/>
<path fill="#159cfa" d="
  M 81.86 60.54
  L 81.75 70.20
  Q 79.99 68.96 80.41 64.53
  A 0.84 0.84 0.0 0 0 79.73 63.63
  Q 78.72 63.44 78.33 62.45
  A 1.03 0.89 -59.2 0 1 78.27 62.11
  Q 78.26 58.55 77.64 55.04
  A 0.48 0.48 0.0 0 0 76.76 54.87
  L 76.15 55.80
  L 75.96 50.73
  Q 76.91 49.41 76.12 48.12
  Q 77.79 47.91 75.70 44.78
  A 0.43 0.42 -3.1 0 1 76.25 44.17
  Q 78.99 45.59 79.50 48.55
  Q 80.51 54.41 81.86 60.54
  Z"
/>
<path fill="#393f4d" d="
  M 34.99 45.47
  Q 35.29 45.08 35.26 44.80
  L 41.56 44.56
  A 0.18 0.18 0.0 0 1 41.58 44.91
  L 34.99 45.47
  Z"
/>
<path fill="#393f4d" d="
  M 56.84 45.19
  Q 56.01 45.35 55.20 44.95
  Q 54.29 44.50 55.31 44.50
  L 56.77 44.50
  A 0.35 0.35 0.0 0 1 56.84 45.19
  Z"
/>
<path fill="#f2f7f6" d="
  M 35.26 44.80
  Q 35.29 45.08 34.99 45.47
  C 29.95 45.51 19.47 45.87 15.50 49.25
  Q 15.03 49.64 15.12 49.04
  C 15.75 44.70 31.25 44.61 35.26 44.80
  Z"
/>
<path fill="#393f4d" d="
  M 63.51 46.17
  Q 62.58 46.17 62.73 46.85
  Q 62.13 45.93 60.76 46.25
  C 59.98 46.43 59.55 46.33 59.00 45.86
  Q 58.43 45.37 59.17 45.28
  Q 61.51 45.00 63.51 46.17
  Z"
/>
<path fill="#77fefe" d="
  M 67.77 50.61
  L 64.69 51.40
  Q 64.20 51.53 64.00 52.00
  Q 63.45 53.30 62.21 53.92
  A 0.72 0.72 0.0 0 1 61.46 53.84
  Q 60.09 52.80 59.44 52.80
  C 47.75 52.76 30.85 51.15 15.49 53.19
  Q 16.12 49.67 19.48 48.96
  C 31.27 46.51 57.96 43.02 67.77 50.61
  Z"
/>
<path fill="#d6feff" d="
  M 63.51 46.17
  C 67.46 46.86 69.94 49.14 70.73 53.00
  Q 70.96 54.13 71.53 55.46
  Q 71.68 55.80 71.40 56.08
  Q 71.20 56.29 71.08 56.03
  C 68.80 51.19 68.53 48.45 62.73 46.85
  Q 62.58 46.17 63.51 46.17
  Z"
/>
<path fill="#e003fe" d="
  M 74.56 50.37
  Q 75.42 54.60 74.49 59.26
  Q 74.71 59.53 74.37 59.70
  Q 73.95 59.92 73.99 59.45
  Q 74.44 53.57 71.91 47.96
  Q 73.37 47.73 74.56 50.37
  Z"
/>
<path fill="#7901f2" d="
  M 98.33 49.23
  L 98.68 52.27
  Q 98.76 52.98 99.44 52.76
  L 100.52 52.43
  A 0.53 0.52 -12.5 0 1 101.20 52.86
  L 101.36 54.07
  Q 101.43 54.53 101.77 54.85
  Q 102.53 55.58 103.72 55.02
  Q 103.90 56.30 103.49 57.10
  Q 102.62 58.91 101.54 59.30
  A 0.58 0.58 0.0 0 1 100.76 58.72
  Q 100.84 57.14 99.29 56.76
  A 0.88 0.87 -85.4 0 1 98.63 55.98
  L 98.25 51.48
  L 98.33 49.23
  Z"
/>
<path fill="#03fcfe" d="
  M 67.77 50.61
  Q 70.62 58.03 69.10 67.86
  Q 66.54 67.20 66.26 67.82
  A 3.10 2.95 -67.2 0 1 62.47 69.47
  L 52.28 65.56
  L 41.27 61.70
  Q 36.72 60.19 31.80 61.04
  Q 31.37 61.11 31.05 60.81
  Q 29.13 59.02 27.24 61.33
  A 0.90 0.89 21.4 0 1 26.49 61.65
  Q 20.80 61.31 16.10 64.46
  A 0.37 0.37 0.0 0 1 15.53 64.18
  L 15.49 63.24
  Q 15.47 62.99 15.33 63.18
  L 15.09 63.49
  L 15.24 53.35
  Q 15.37 53.27 15.49 53.19
  C 30.85 51.15 47.75 52.76 59.44 52.80
  Q 60.09 52.80 61.46 53.84
  A 0.72 0.72 0.0 0 0 62.21 53.92
  Q 63.45 53.30 64.00 52.00
  Q 64.20 51.53 64.69 51.40
  L 67.77 50.61
  Z"
/>
<path fill="#159cfa" d="
  M 95.36 50.49
  Q 96.16 52.88 98.01 52.91
  L 96.52 62.43
  Q 96.48 62.65 96.27 62.59
  Q 96.10 62.53 95.94 62.48
  Q 95.48 62.33 95.54 61.86
  Q 96.16 57.15 95.12 52.52
  L 95.36 50.49
  Z"
/>
<path fill="#875f63" d="
  M 11.95 51.19
  Q 11.95 51.59 12.78 51.51
  Q 12.77 51.76 12.69 51.90
  L 12.15 54.11
  Q 11.94 54.98 11.61 54.15
  Q 11.17 53.08 11.95 51.19
  Z"
/>
<path fill="#159cfa" d="
  M 88.44 59.29
  Q 88.32 58.19 87.95 57.84
  A 0.43 0.42 -73.4 0 0 87.24 58.23
  Q 87.51 59.77 85.98 60.01
  A 0.24 0.24 0.0 0 1 85.75 59.64
  Q 86.19 59.02 85.54 58.25
  Q 85.19 57.83 84.69 58.06
  L 84.25 58.26
  L 85.04 53.31
  Q 85.45 51.76 85.75 51.60
  A 1.46 1.41 -16.8 0 1 87.88 52.69
  L 88.44 59.29
  Z"
/>
<path fill="#1d03fa" d="
  M 98.25 51.48
  L 98.63 55.98
  A 0.88 0.87 -85.4 0 0 99.29 56.76
  Q 100.84 57.14 100.76 58.72
  A 0.58 0.58 0.0 0 0 101.54 59.30
  Q 102.62 58.91 103.49 57.10
  L 100.57 68.53
  C 99.32 70.62 97.08 69.54 95.29 69.09
  Q 94.80 68.97 94.55 69.41
  L 92.94 72.30
  Q 91.06 73.41 91.96 67.46
  L 94.62 57.04
  L 95.12 52.52
  Q 96.16 57.15 95.54 61.86
  Q 95.48 62.33 95.94 62.48
  Q 96.10 62.53 96.27 62.59
  Q 96.48 62.65 96.52 62.43
  L 98.01 52.91
  Q 97.85 51.65 98.25 51.48
  Z"
/>
<path fill="#030103" d="
  M 85.04 53.31
  L 84.25 58.26
  Q 83.45 66.66 83.53 69.00
  Q 83.67 73.32 87.47 70.57
  A 1.82 1.79 -17.6 0 0 88.22 69.15
  L 88.46 59.78
  Q 89.07 58.95 89.98 59.33
  Q 90.45 59.53 90.49 60.04
  L 90.82 64.01
  Q 90.86 64.49 91.07 64.05
  Q 92.92 60.12 92.90 55.77
  A 0.64 0.63 27.7 0 1 94.06 55.41
  Q 94.50 56.05 94.62 57.04
  L 91.96 67.46
  Q 88.94 76.41 82.04 80.42
  Q 73.58 81.80 69.75 89.54
  Q 69.50 89.60 69.26 89.91
  Q 68.94 90.31 68.64 89.90
  Q 68.33 89.46 68.50 88.99
  Q 68.93 87.88 70.52 85.29
  Q 70.80 84.83 70.28 84.98
  Q 61.71 87.37 53.68 83.23
  Q 53.31 83.04 52.91 83.00
  L 48.83 82.59
  Q 49.97 82.03 50.31 81.51
  Q 51.99 81.40 52.44 81.56
  Q 60.32 84.41 66.60 84.08
  C 73.84 82.57 79.07 77.05 77.85 69.58
  Q 77.77 69.08 77.36 68.77
  Q 76.75 68.30 77.17 67.68
  A 0.61 0.61 0.0 0 1 78.21 67.75
  L 81.49 74.21
  A 0.52 0.52 0.0 0 0 82.47 73.99
  Q 82.53 71.89 81.75 70.20
  L 81.86 60.54
  Q 82.94 56.87 82.21 54.46
  L 82.57 53.21
  Q 82.73 52.65 83.29 52.83
  Q 84.19 53.12 84.30 52.07
  A 0.29 0.29 0.0 0 1 84.82 51.93
  Q 85.13 52.34 85.04 53.31
  Z"
/>
<path fill="#1d03fa" d="
  M 81.75 70.20
  Q 82.53 71.89 82.47 73.99
  A 0.52 0.52 0.0 0 1 81.49 74.21
  L 78.21 67.75
  A 0.61 0.61 0.0 0 0 77.17 67.68
  Q 76.75 68.30 77.36 68.77
  Q 77.77 69.08 77.85 69.58
  C 79.07 77.05 73.84 82.57 66.60 84.08
  L 67.23 83.01
  Q 67.41 82.71 67.06 82.66
  L 63.30 82.10
  A 0.64 0.63 46.4 0 1 63.33 80.84
  Q 73.26 79.93 74.33 71.85
  Q 76.15 64.41 76.15 55.80
  L 76.76 54.87
  A 0.48 0.48 0.0 0 1 77.64 55.04
  Q 78.26 58.55 78.27 62.11
  A 1.03 0.89 -59.2 0 0 78.33 62.45
  Q 78.72 63.44 79.73 63.63
  A 0.84 0.84 0.0 0 1 80.41 64.53
  Q 79.99 68.96 81.75 70.20
  Z"
/>
<path fill="#03fcfe" d="
  M 88.44 59.29
  Q 88.64 59.76 88.46 59.78
  L 88.22 69.15
  A 1.82 1.79 -17.6 0 1 87.47 70.57
  Q 83.67 73.32 83.53 69.00
  Q 83.45 66.66 84.25 58.26
  L 84.69 58.06
  Q 85.19 57.83 85.54 58.25
  Q 86.19 59.02 85.75 59.64
  A 0.24 0.24 0.0 0 0 85.98 60.01
  Q 87.51 59.77 87.24 58.23
  A 0.43 0.42 -73.4 0 1 87.95 57.84
  Q 88.32 58.19 88.44 59.29
  Z"
/>
<path fill="#77fefe" d="
  M 111.05 57.63
  L 116.54 59.00
  Q 117.07 59.13 116.73 59.55
  Q 116.50 59.84 116.11 59.98
  C 115.32 60.27 112.90 59.67 111.63 59.90
  L 111.05 57.63
  Z"
/>
<path fill="#09bffe" d="
  M 41.27 61.70
  Q 38.24 61.17 35.24 61.27
  C 30.25 61.42 25.70 65.32 21.20 67.39
  Q 19.00 68.40 17.96 70.99
  L 15.55 70.98
  Q 14.57 67.85 15.09 63.49
  L 15.33 63.18
  Q 15.47 62.99 15.49 63.24
  L 15.53 64.18
  A 0.37 0.37 0.0 0 0 16.10 64.46
  Q 20.80 61.31 26.49 61.65
  A 0.90 0.89 21.4 0 0 27.24 61.33
  Q 29.13 59.02 31.05 60.81
  Q 31.37 61.11 31.80 61.04
  Q 36.72 60.19 41.27 61.70
  Z"
/>
<path fill="#4a6cfd" d="
  M 41.27 61.70
  L 52.28 65.56
  Q 51.77 65.69 51.56 65.90
  Q 51.13 66.31 51.67 66.56
  L 59.99 70.42
  Q 60.75 70.77 59.92 70.88
  Q 57.85 71.16 55.78 70.62
  C 50.09 69.13 44.23 68.51 38.59 66.84
  Q 38.00 66.66 38.01 66.04
  Q 38.01 65.91 37.99 65.79
  Q 37.91 65.21 37.33 65.18
  C 33.67 64.98 30.59 64.24 27.87 67.90
  A 1.18 1.15 -74.1 0 1 27.05 68.37
  Q 24.37 68.68 23.35 71.00
  L 17.96 70.99
  Q 19.00 68.40 21.20 67.39
  C 25.70 65.32 30.25 61.42 35.24 61.27
  Q 38.24 61.17 41.27 61.70
  Z"
/>
<path fill="#1944fb" d="
  M 52.28 65.56
  L 62.47 69.47
  A 3.10 2.95 -67.2 0 0 66.26 67.82
  Q 66.54 67.20 69.10 67.86
  Q 67.40 74.53 59.98 73.73
  C 52.35 72.13 44.37 69.54 36.86 69.64
  Q 30.00 69.72 23.35 71.00
  Q 24.37 68.68 27.05 68.37
  A 1.18 1.15 -74.1 0 0 27.87 67.90
  C 30.59 64.24 33.67 64.98 37.33 65.18
  Q 37.91 65.21 37.99 65.79
  Q 38.01 65.91 38.01 66.04
  Q 38.00 66.66 38.59 66.84
  C 44.23 68.51 50.09 69.13 55.78 70.62
  Q 57.85 71.16 59.92 70.88
  Q 60.75 70.77 59.99 70.42
  L 51.67 66.56
  Q 51.13 66.31 51.56 65.90
  Q 51.77 65.69 52.28 65.56
  Z"
/>
<path fill="#140307" d="
  M 102.00 66.74
  Q 101.80 67.77 103.97 68.86
  Q 103.24 69.26 103.82 71.36
  L 96.36 74.80
  Q 87.71 84.58 76.95 90.99
  L 69.06 94.11
  L 68.92 92.28
  Q 73.39 90.48 76.58 87.30
  Q 76.90 86.97 76.76 86.53
  L 76.42 85.50
  Q 79.74 83.19 83.53 82.26
  C 88.00 81.24 90.75 76.36 92.94 72.30
  L 94.55 69.41
  Q 94.80 68.97 95.29 69.09
  C 97.08 69.54 99.32 70.62 100.57 68.53
  L 102.00 66.74
  Z"
/>
<path fill="#2500b0" d="
  M 91.96 67.46
  Q 91.06 73.41 92.94 72.30
  C 90.75 76.36 88.00 81.24 83.53 82.26
  Q 83.87 81.05 82.04 80.42
  Q 88.94 76.41 91.96 67.46
  Z"
/>
<path fill="#03fcfe" d="
  M 103.97 68.86
  L 104.70 69.60
  Q 105.08 69.98 105.09 70.53
  C 105.37 82.51 95.31 92.96 85.36 97.91
  Q 71.84 104.64 56.79 104.75
  L 49.42 104.17
  Q 49.05 104.14 49.41 104.03
  Q 49.56 103.98 49.71 103.93
  A 0.13 0.13 0.0 0 0 49.68 103.68
  L 43.52 102.89
  A 0.71 0.71 0.0 0 1 42.91 102.34
  L 42.80 101.88
  Q 42.65 101.21 43.33 101.07
  L 44.50 100.83
  Q 54.26 101.61 63.75 99.23
  L 71.12 97.20
  Q 71.69 97.05 71.41 96.53
  Q 71.24 96.21 70.80 96.39
  Q 67.23 97.76 63.52 98.30
  Q 53.99 100.69 44.60 99.47
  L 51.52 98.13
  L 69.06 94.11
  L 76.95 90.99
  L 76.21 91.89
  Q 76.01 92.13 76.32 92.10
  Q 79.09 91.92 81.43 90.46
  Q 81.42 91.28 82.04 91.59
  L 77.88 94.24
  Q 77.40 94.54 77.97 94.54
  C 85.37 94.46 89.40 95.02 94.21 90.28
  Q 99.55 86.12 102.35 78.82
  L 103.82 71.36
  Q 103.24 69.26 103.97 68.86
  Z"
/>
<path fill="#1d001d" d="
  M 59.98 73.73
  Q 58.06 73.42 56.99 74.12
  Q 56.21 74.63 57.13 74.80
  C 59.72 75.25 62.15 75.53 64.85 74.63
  Q 66.69 74.01 68.67 73.95
  A 0.23 0.23 0.0 0 1 68.73 74.40
  L 65.22 75.34
  A 0.56 0.56 0.0 0 0 65.26 76.44
  L 66.61 76.69
  L 46.10 78.48
  C 44.00 76.03 42.15 75.00 38.69 75.25
  C 31.01 75.81 21.87 76.16 14.55 73.61
  Q 16.74 72.40 15.55 70.98
  L 17.96 70.99
  L 23.35 71.00
  Q 30.00 69.72 36.86 69.64
  C 44.37 69.54 52.35 72.13 59.98 73.73
  Z
  M 17.82 73.08
  Q 23.23 75.41 31.55 73.62
  A 0.20 0.20 0.0 0 0 31.51 73.23
  Q 24.72 73.34 18.00 72.44
  Q 15.57 72.12 17.82 73.08
  Z"
/>
<path fill="#270069" d="
  M 103.82 71.36
  L 102.35 78.82
  L 96.29 78.70
  Q 97.90 77.40 98.00 76.01
  Q 98.10 75.46 97.79 75.21
  Q 97.59 75.04 96.36 74.80
  L 103.82 71.36
  Z"
/>
<path fill="#e003fe" d="
  M 74.33 71.85
  Q 73.26 79.93 63.33 80.84
  A 0.64 0.63 46.4 0 0 63.30 82.10
  L 67.06 82.66
  Q 67.41 82.71 67.23 83.01
  L 66.60 84.08
  Q 60.32 84.41 52.44 81.56
  Q 51.99 81.40 50.31 81.51
  L 46.10 78.48
  L 66.61 76.69
  Q 70.22 75.98 74.33 71.85
  Z"
/>
<path fill="#03fcfe" d="
  M 14.55 73.61
  C 21.87 76.16 31.01 75.81 38.69 75.25
  C 42.15 75.00 44.00 76.03 46.10 78.48
  L 50.31 81.51
  Q 49.97 82.03 48.83 82.59
  L 43.78 79.99
  Q 43.35 79.77 42.86 79.78
  L 40.73 79.81
  Q 31.04 79.40 19.25 80.74
  C 16.21 81.09 13.45 75.16 12.53 72.72
  A 0.34 0.34 0.0 0 1 12.98 72.29
  Q 13.85 72.66 14.55 73.61
  Z"
/>
<path fill="#159cfa" d="
  M 17.82 73.08
  Q 15.57 72.12 18.00 72.44
  Q 24.72 73.34 31.51 73.23
  A 0.20 0.20 0.0 0 1 31.55 73.62
  Q 23.23 75.41 17.82 73.08
  Z"
/>
<path fill="#1d03fa" d="
  M 96.36 74.80
  Q 97.59 75.04 97.79 75.21
  Q 98.10 75.46 98.00 76.01
  Q 97.53 76.20 97.28 76.51
  Q 90.68 84.95 81.43 90.46
  Q 79.09 91.92 76.32 92.10
  Q 76.01 92.13 76.21 91.89
  L 76.95 90.99
  Q 87.71 84.58 96.36 74.80
  Z"
/>
<path fill="#4a6cfd" d="
  M 98.00 76.01
  Q 97.90 77.40 96.29 78.70
  Q 90.84 85.58 83.43 90.68
  L 82.04 91.59
  Q 81.42 91.28 81.43 90.46
  Q 90.68 84.95 97.28 76.51
  Q 97.53 76.20 98.00 76.01
  Z"
/>
<path fill="#1d03fa" d="
  M 102.35 78.82
  Q 99.55 86.12 94.21 90.28
  L 83.83 91.18
  Q 83.56 91.21 83.49 90.94
  Q 83.46 90.82 83.43 90.68
  Q 90.84 85.58 96.29 78.70
  L 102.35 78.82
  Z"
/>
<path fill="#1d001d" d="
  M 40.73 79.81
  L 42.86 79.78
  Q 43.35 79.77 43.78 79.99
  L 48.83 82.59
  L 52.91 83.00
  Q 53.31 83.04 53.68 83.23
  Q 61.71 87.37 70.28 84.98
  Q 70.80 84.83 70.52 85.29
  Q 68.93 87.88 68.50 88.99
  Q 68.33 89.46 68.64 89.90
  Q 68.94 90.31 69.26 89.91
  Q 69.50 89.60 69.75 89.54
  Q 69.65 89.87 69.86 90.33
  Q 68.46 91.27 68.92 92.28
  L 69.06 94.11
  L 51.52 98.13
  L 49.01 97.38
  L 51.99 97.20
  Q 54.16 97.55 54.90 96.42
  A 0.52 0.51 -57.1 0 0 54.75 95.70
  L 46.91 90.63
  A 0.39 0.39 0.0 0 0 46.41 91.21
  C 47.51 92.47 48.81 93.94 50.32 94.65
  Q 51.87 95.38 51.09 96.12
  C 47.37 95.29 44.36 90.89 40.89 86.83
  A 0.28 0.28 0.0 0 0 40.42 87.12
  L 42.80 92.70
  L 40.79 90.99
  Q 40.70 90.27 40.24 90.30
  Q 38.48 85.72 36.02 84.01
  Q 36.43 84.13 36.75 83.86
  Q 37.12 83.55 37.09 83.06
  Q 37.03 81.55 40.73 79.81
  Z"
/>
<path fill="#fa02fb" d="
  M 82.04 80.42
  Q 83.87 81.05 83.53 82.26
  Q 79.74 83.19 76.42 85.50
  L 69.86 90.33
  Q 69.65 89.87 69.75 89.54
  Q 73.58 81.80 82.04 80.42
  Z"
/>
<path fill="#1d03fa" d="
  M 36.02 84.01
  Q 38.48 85.72 40.24 90.30
  C 37.57 89.13 36.49 85.69 32.61 87.65
  Q 31.31 86.07 31.23 84.55
  A 0.74 0.74 0.0 0 1 31.73 83.81
  Q 33.36 83.27 36.02 84.01
  Z"
/>
<path fill="#1d03fa" d="
  M 76.42 85.50
  L 76.76 86.53
  Q 76.90 86.97 76.58 87.30
  Q 73.39 90.48 68.92 92.28
  Q 68.46 91.27 69.86 90.33
  L 76.42 85.50
  Z"
/>
<path fill="#7901f2" d="
  M 51.09 96.12
  Q 51.18 96.72 51.99 97.20
  L 49.01 97.38
  Q 47.73 97.70 48.69 97.40
  L 42.80 92.70
  L 40.42 87.12
  A 0.28 0.28 0.0 0 1 40.89 86.83
  C 44.36 90.89 47.37 95.29 51.09 96.12
  Z"
/>
<path fill="#4a6cfd" d="
  M 40.24 90.30
  Q 40.70 90.27 40.79 90.99
  L 35.52 91.28
  L 34.12 90.01
  L 32.61 87.65
  C 36.49 85.69 37.57 89.13 40.24 90.30
  Z"
/>
<path fill="#160213" d="
  M 34.12 90.01
  L 35.52 91.28
  Q 38.68 94.90 42.41 95.90
  Q 41.01 98.33 44.60 99.47
  Q 53.99 100.69 63.52 98.30
  Q 63.83 98.81 63.75 99.23
  Q 54.26 101.61 44.50 100.83
  L 29.89 98.79
  Q 29.22 96.36 30.39 94.96
  Q 31.37 95.78 32.45 95.99
  Q 33.21 96.13 32.79 95.48
  Q 32.36 94.81 31.58 94.30
  Q 32.38 91.83 34.12 90.01
  Z"
/>
<path fill="#159cfa" d="
  M 94.21 90.28
  C 89.40 95.02 85.37 94.46 77.97 94.54
  Q 77.40 94.54 77.88 94.24
  L 82.04 91.59
  L 83.43 90.68
  Q 83.46 90.82 83.49 90.94
  Q 83.56 91.21 83.83 91.18
  L 94.21 90.28
  Z"
/>
<path fill="#1d03fa" d="
  M 51.99 97.20
  Q 51.18 96.72 51.09 96.12
  Q 51.87 95.38 50.32 94.65
  C 48.81 93.94 47.51 92.47 46.41 91.21
  A 0.39 0.39 0.0 0 1 46.91 90.63
  L 54.75 95.70
  A 0.52 0.51 -57.1 0 1 54.90 96.42
  Q 54.16 97.55 51.99 97.20
  Z"
/>
<path fill="#77fefe" d="
  M 29.57 93.52
  Q 29.40 93.85 28.79 93.74
  Q 26.44 92.98 25.62 91.29
  Q 25.04 90.08 26.11 90.89
  L 29.57 93.52
  Z"
/>
<path fill="#03fcfe" d="
  M 40.79 90.99
  L 42.80 92.70
  L 48.69 97.40
  Q 45.57 98.64 42.41 95.90
  Q 38.68 94.90 35.52 91.28
  L 40.79 90.99
  Z"
/>
<path fill="#4a6cfd" d="
  M 29.57 93.52
  Q 30.34 94.29 31.58 94.30
  Q 32.36 94.81 32.79 95.48
  Q 33.21 96.13 32.45 95.99
  Q 31.37 95.78 30.39 94.96
  L 28.79 93.74
  Q 29.40 93.85 29.57 93.52
  Z"
/>
<path fill="#77fefe" d="
  M 29.89 98.79
  L 44.50 100.83
  L 43.33 101.07
  Q 42.65 101.21 42.80 101.88
  L 42.91 102.34
  A 0.71 0.71 0.0 0 0 43.52 102.89
  L 49.68 103.68
  A 0.13 0.13 0.0 0 1 49.71 103.93
  Q 49.56 103.98 49.41 104.03
  Q 49.05 104.14 49.42 104.17
  L 56.79 104.75
  C 44.85 105.47 30.98 103.05 20.88 96.13
  Q 20.67 95.99 20.75 95.74
  Q 20.79 95.62 20.83 95.49
  A 0.09 0.08 21.7 0 1 20.94 95.45
  L 29.89 98.79
  Z"
/>
<path fill="#393f4d" d="
  M 42.41 95.90
  Q 45.57 98.64 48.69 97.40
  Q 47.73 97.70 49.01 97.38
  L 51.52 98.13
  L 44.60 99.47
  Q 41.01 98.33 42.41 95.90
  Z"
/>
<path fill="#1facbb" fill-opacity="0.996" d="
  M 63.75 99.23
  Q 63.83 98.81 63.52 98.30
  Q 67.23 97.76 70.80 96.39
  Q 71.24 96.21 71.41 96.53
  Q 71.69 97.05 71.12 97.20
  L 63.75 99.23
  Z"
/>
</svg>
