<?xml version="1.0" encoding="UTF-8" standalone="no"?>
<!DOCTYPE svg PUBLIC "-//W3C//DTD SVG 1.1//EN" "http://www.w3.org/Graphics/SVG/1.1/DTD/svg11.dtd">
<svg xmlns="http://www.w3.org/2000/svg" version="1.1" viewBox="0.00 0.00 132.00 106.00">
<g stroke-width="2.00" fill="none" stroke-linecap="butt">
<path stroke="#140a16" vector-effect="non-scaling-stroke" d="
  M 117.40 42.72
  Q 116.91 43.82 115.79 44.56"
/>
<path stroke="#725a7b" vector-effect="non-scaling-stroke" d="
  M 115.79 44.56
  Q 116.82 40.15 113.94 39.88"
/>
<path stroke="#140a16" vector-effect="non-scaling-stroke" d="
  M 113.94 39.88
  Q 114.19 39.14 113.84 38.80
  Q 113.58 38.54 113.00 38.72
  Q 108.66 40.01 108.43 44.41
  C 108.32 46.53 109.94 47.75 107.48 49.97
  A 0.86 0.85 62.5 0 0 107.22 50.81
  C 107.66 52.63 109.11 53.22 110.78 52.24
  Q 114.30 50.17 117.84 46.64"
/>
<path stroke="#725a7b" vector-effect="non-scaling-stroke" d="
  M 117.91 55.17
  Q 112.68 59.29 109.18 60.41
  C 105.26 61.67 101.28 58.31 103.71 54.17
  Q 103.89 53.84 103.74 53.54
  Q 103.49 53.02 103.17 53.50
  Q 100.11 58.07 100.74 62.55"
/>
<path stroke="#523061" vector-effect="non-scaling-stroke" d="
  M 100.74 62.55
  C 104.59 68.34 114.82 66.71 116.33 59.73"
/>
<path stroke="#725a7b" vector-effect="non-scaling-stroke" d="
  M 116.33 59.73
  Q 116.51 58.14 117.73 56.41"
/>
<path stroke="#140a16" vector-effect="non-scaling-stroke" d="
  M 14.15 63.51
  Q 14.85 62.73 15.88 62.29"
/>
<path stroke="#8e8191" vector-effect="non-scaling-stroke" d="
  M 15.88 62.29
  L 17.46 63.81"
/>
<path stroke="#725a7b" vector-effect="non-scaling-stroke" d="
  M 17.46 63.81
  Q 17.72 64.03 17.74 64.27"
/>
<path stroke="#140a16" vector-effect="non-scaling-stroke" d="
  M 17.74 64.27
  Q 17.06 64.14 16.70 64.29
  A 0.36 0.35 -38.8 0 0 16.63 64.91
  C 23.67 69.82 36.06 66.62 36.72 56.77
  Q 36.74 56.34 35.72 56.77"
/>
<path stroke="#8e8191" vector-effect="non-scaling-stroke" d="
  M 35.72 56.77
  Q 36.00 56.38 36.07 56.01
  Q 36.17 55.42 35.69 55.76
  L 34.59 56.53"
/>
<path stroke="#140a16" vector-effect="non-scaling-stroke" d="
  M 34.59 56.53
  Q 34.31 56.21 33.67 56.23
  A 1.46 1.45 23.5 0 0 32.79 56.57
  C 29.85 59.11 23.52 62.17 20.23 58.61
  C 17.10 55.22 20.88 53.97 20.61 50.93
  Q 20.50 49.61 19.09 49.34
  A 1.33 1.33 0.0 0 0 17.69 49.97
  L 13.40 57.31"
/>
<path stroke="#605169" vector-effect="non-scaling-stroke" d="
  M 17.74 64.27
  Q 23.50 67.11 29.60 64.55"
/>
<path stroke="#9e77b4" vector-effect="non-scaling-stroke" d="
  M 116.33 59.73
  Q 113.99 59.46 111.37 60.68
  C 107.97 62.25 105.62 63.51 103.10 60.41
  A 0.67 0.66 20.1 0 0 101.93 60.95
  Q 102.40 63.36 100.74 62.55"
/>
<path stroke="#7d797e" vector-effect="non-scaling-stroke" d="
  M 34.59 56.53
  C 31.13 60.00 25.24 63.31 20.52 60.39
  C 16.85 58.11 17.24 54.01 19.71 51.02
  Q 19.91 50.78 19.69 50.56
  L 19.46 50.33
  Q 19.16 50.03 18.90 50.37
  Q 14.66 55.85 15.88 62.29"
/>
<path stroke="#605169" vector-effect="non-scaling-stroke" d="
  M 113.94 39.88
  Q 108.33 40.52 110.09 46.56
  Q 110.23 47.06 110.01 47.52
  L 108.60 50.41
  A 0.76 0.76 0.0 0 0 109.50 51.47
  Q 114.73 49.95 115.79 44.56"
/>
<path stroke="#7d797e" vector-effect="non-scaling-stroke" d="
  M 35.72 56.77
  Q 35.02 63.19 29.60 64.55"
/>
<path stroke="#dbc9e4" vector-effect="non-scaling-stroke" d="
  M 29.60 64.55
  Q 27.65 63.49 32.04 61.80
  Q 32.92 61.46 32.44 60.59
  Q 32.22 60.18 31.84 60.47
  Q 24.80 65.80 17.88 60.50
  Q 17.33 60.08 17.24 60.77
  Q 17.08 62.00 18.05 62.71
  A 0.53 0.52 36.4 0 1 18.17 63.46
  Q 17.92 63.78 17.46 63.81"
/>
<path stroke="#725a7b" vector-effect="non-scaling-stroke" d="
  M 80.67 15.64
  L 72.25 51.56
  Q 72.09 52.21 72.72 51.98
  L 73.46 51.70"
/>
<path stroke="#140a16" vector-effect="non-scaling-stroke" d="
  M 73.46 51.70
  Q 73.44 52.14 73.64 52.31"
/>
<path stroke="#89788c" vector-effect="non-scaling-stroke" d="
  M 73.64 52.31
  L 71.51 53.90"
/>
<path stroke="#140a16" vector-effect="non-scaling-stroke" d="
  M 71.51 53.90
  Q 69.19 54.19 67.13 55.73
  C 60.14 60.95 51.50 61.66 48.27 51.67
  A 0.85 0.85 0.0 0 1 49.17 50.57
  C 58.14 51.53 72.60 49.03 69.82 36.25
  A 1.57 1.57 0.0 0 0 67.42 35.27
  Q 64.06 37.49 65.83 41.00
  A 0.97 0.96 -43.5 0 1 65.80 41.93
  Q 64.45 44.25 61.60 43.95
  A 1.62 1.59 33.4 0 0 60.68 44.13
  C 57.76 45.72 53.77 44.74 50.41 45.37
  Q 49.91 45.46 49.56 45.81
  L 47.27 48.10
  A 0.52 0.51 56.7 0 1 46.43 47.92
  L 43.05 39.20
  A 0.99 0.99 0.0 0 1 43.85 37.86
  Q 55.47 36.53 59.75 26.54
  C 62.26 20.67 60.11 15.03 54.01 13.04
  Q 46.02 10.42 39.13 15.67
  Q 34.51 19.18 32.98 26.24
  Q 30.69 36.85 28.47 47.46
  C 28.11 49.18 27.11 50.73 26.55 52.47
  A 0.43 0.43 0.0 0 0 27.00 53.03
  L 27.44 52.98"
/>
<path stroke="#89788c" vector-effect="non-scaling-stroke" d="
  M 27.44 52.98
  Q 27.05 53.27 28.55 53.50"
/>
<path stroke="#140a16" vector-effect="non-scaling-stroke" d="
  M 28.55 53.50
  Q 32.85 52.00 34.50 47.20
  Q 35.69 43.71 36.42 42.09
  Q 36.81 41.22 37.19 42.09
  C 41.60 52.28 43.94 66.62 57.79 67.58
  A 1.87 1.86 -56.2 0 1 58.49 71.11
  L 52.24 74.22"
/>
<path stroke="#725a7b" vector-effect="non-scaling-stroke" d="
  M 52.24 74.22
  C 46.64 76.97 40.53 71.88 35.61 76.95
  C 33.10 79.53 31.29 83.46 31.17 87.21
  A 0.51 0.51 0.0 0 0 32.09 87.52
  Q 32.44 87.01 32.45 86.24
  Q 32.51 82.34 36.19 78.93"
/>
<path stroke="#523061" vector-effect="non-scaling-stroke" d="
  M 36.19 78.93
  L 52.26 78.21"
/>
<path stroke="#140a16" vector-effect="non-scaling-stroke" d="
  M 52.26 78.21
  Q 53.94 79.56 56.84 78.26
  A 1.25 1.25 0.0 0 1 58.58 79.65
  Q 57.74 83.74 56.82 87.81
  Q 56.71 88.30 56.00 88.77"
/>
<path stroke="#89788c" vector-effect="non-scaling-stroke" d="
  M 56.00 88.77
  Q 55.28 88.88 54.54 89.41"
/>
<path stroke="#140a16" vector-effect="non-scaling-stroke" d="
  M 54.54 89.41
  Q 53.18 89.01 52.86 91.42
  Q 52.79 91.92 53.09 92.32
  Q 53.43 92.78 53.51 93.23"
/>
<path stroke="#89788c" vector-effect="non-scaling-stroke" d="
  M 53.51 93.23
  Q 52.56 93.16 52.77 93.70"
/>
<path stroke="#140a16" vector-effect="non-scaling-stroke" d="
  M 52.77 93.70
  Q 51.24 93.93 52.12 95.44
  C 55.62 101.42 61.63 93.31 63.42 89.94
  A 1.76 1.76 0.0 0 1 66.34 89.65
  L 68.05 91.75
  Q 68.39 92.18 68.92 92.02
  Q 70.06 91.67 70.57 90.58
  Q 70.79 90.12 71.17 89.77
  Q 75.66 85.77 80.77 84.96"
/>
<path stroke="#5a1544" vector-effect="non-scaling-stroke" d="
  M 80.77 84.96
  C 83.27 85.73 81.61 89.00 81.25 90.73
  Q 81.07 91.63 82.22 91.72
  A 0.58 0.57 7.2 0 0 82.83 91.25
  C 83.30 88.66 83.38 86.96 84.65 84.47
  Q 86.07 81.70 86.46 78.53
  Q 86.52 78.00 85.99 77.99
  Q 85.43 77.98 85.29 78.55
  Q 84.79 80.61 83.63 82.29"
/>
<path stroke="#140a16" vector-effect="non-scaling-stroke" d="
  M 83.63 82.29
  Q 81.98 81.59 82.93 79.47
  Q 83.17 78.94 82.69 78.59
  Q 82.25 78.26 81.56 78.76"
/>
<path stroke="#89788c" vector-effect="non-scaling-stroke" d="
  M 81.56 78.76
  Q 81.56 78.58 81.50 78.46
  A 0.31 0.31 0.0 0 0 80.96 78.41
  L 79.58 80.47
  A 0.45 0.45 0.0 0 0 79.63 81.04
  Q 79.94 81.36 80.45 81.24"
/>
<path stroke="#140a16" vector-effect="non-scaling-stroke" d="
  M 80.45 81.24
  Q 80.56 81.74 80.45 82.27"
/>
<path stroke="#8e8191" vector-effect="non-scaling-stroke" d="
  M 80.45 82.27
  C 78.20 81.36 75.32 83.42 73.21 84.40
  A 0.42 0.42 0.0 0 1 72.61 84.04
  Q 72.50 81.25 70.39 80.64"
/>
<path stroke="#140a16" vector-effect="non-scaling-stroke" d="
  M 70.39 80.64
  Q 70.21 79.47 68.49 80.26"
/>
<path stroke="#8e8191" vector-effect="non-scaling-stroke" d="
  M 68.49 80.26
  Q 67.35 79.93 66.95 78.38"
/>
<path stroke="#140a16" vector-effect="non-scaling-stroke" d="
  M 66.95 78.38
  Q 67.16 77.87 66.86 77.54
  A 0.53 0.52 49.2 0 0 66.16 77.48
  L 63.82 79.24
  A 0.64 0.63 48.6 0 1 62.98 79.18
  L 61.26 77.46
  A 0.63 0.62 -33.6 0 1 61.47 76.44
  Q 63.07 75.78 64.29 74.90
  Q 66.68 73.15 65.49 72.33"
/>
<path stroke="#523061" vector-effect="non-scaling-stroke" d="
  M 65.49 72.33
  Q 71.96 67.51 74.19 60.04"
/>
<path stroke="#140a16" vector-effect="non-scaling-stroke" d="
  M 74.19 60.04
  L 74.04 61.80
  Q 74.02 62.00 74.23 62.00
  Q 74.41 62.00 74.58 62.00
  Q 74.83 62.00 74.89 61.77
  L 76.32 56.64
  Q 76.44 56.24 76.74 55.94
  C 79.44 53.29 81.29 51.27 82.36 47.41
  Q 83.13 44.62 83.98 41.87
  A 0.50 0.50 0.0 0 0 83.60 41.23
  Q 83.39 41.18 83.10 41.20"
/>
<path stroke="#89788c" vector-effect="non-scaling-stroke" d="
  M 83.10 41.20
  Q 83.68 40.48 83.25 40.52
  Q 82.45 40.59 82.10 41.80"
/>
<path stroke="#140a16" vector-effect="non-scaling-stroke" d="
  M 82.10 41.80
  Q 81.77 41.26 81.07 41.58
  Q 78.87 42.60 79.40 40.42
  L 84.85 18.11
  Q 84.99 17.57 85.50 17.33
  C 87.42 16.46 90.15 15.79 89.70 13.04
  A 0.64 0.63 -6.1 0 0 89.04 12.51
  L 88.19 12.56"
/>
<path stroke="#89788c" vector-effect="non-scaling-stroke" d="
  M 88.19 12.56
  L 87.83 12.21
  Q 87.48 11.88 87.05 12.08
  Q 84.82 13.08 82.97 11.54
  A 1.11 1.05 -18.5 0 0 82.43 11.29
  Q 79.29 10.80 77.60 13.33
  A 1.23 1.23 0.0 0 0 78.40 15.22
  L 80.67 15.64"
/>
<path stroke="#776f79" vector-effect="non-scaling-stroke" d="
  M 88.19 12.56
  L 88.73 13.81
  Q 89.04 14.51 88.30 14.70
  L 84.38 15.73
  Q 83.92 15.85 83.81 16.31
  Q 80.56 30.23 77.05 44.00
  Q 76.06 47.90 73.83 51.10"
/>
<path stroke="#d5bfdf" vector-effect="non-scaling-stroke" d="
  M 73.83 51.10
  Q 73.17 51.03 73.18 50.05
  Q 73.19 49.58 73.51 48.98
  C 75.23 45.69 75.70 42.04 76.46 39.13
  C 77.91 33.57 78.98 28.06 80.75 22.58
  Q 81.89 19.03 80.67 15.64"
/>
<path stroke="#776f79" vector-effect="non-scaling-stroke" d="
  M 82.10 41.80
  Q 78.55 48.15 73.64 52.31"
/>
<path stroke="#605169" vector-effect="non-scaling-stroke" d="
  M 73.46 51.70
  Q 73.70 51.45 73.83 51.10"
/>
<path stroke="#776f79" vector-effect="non-scaling-stroke" d="
  M 83.10 41.20
  L 79.65 50.74
  A 1.28 1.27 -13.9 0 1 79.37 51.20
  L 75.81 55.09"
/>
<path stroke="#c6a9d3" vector-effect="non-scaling-stroke" d="
  M 75.81 55.09
  L 74.28 54.26
  Q 73.84 54.03 73.46 54.35
  C 65.20 61.44 53.80 67.69 46.31 54.88
  A 0.71 0.71 0.0 0 0 45.15 54.79
  Q 44.98 55.00 45.05 55.31
  Q 45.10 55.50 45.33 55.73
  Q 46.84 57.28 45.22 58.27"
/>
<path stroke="#776f79" vector-effect="non-scaling-stroke" d="
  M 45.22 58.27
  L 36.57 37.45
  A 0.63 0.63 0.0 0 0 35.36 37.65
  Q 34.80 46.50 28.55 53.50"
/>
<path stroke="#776f79" vector-effect="non-scaling-stroke" d="
  M 71.51 53.90
  Q 65.08 60.32 56.76 60.76
  C 47.78 61.24 43.42 43.47 40.63 37.07
  Q 40.42 36.59 40.94 36.60
  Q 49.65 36.62 55.57 30.71
  C 61.38 24.90 61.02 15.02 51.19 13.82
  C 44.61 13.02 36.23 16.83 34.73 24.25
  Q 32.57 34.94 30.05 45.56
  Q 28.93 50.28 27.44 52.98"
/>
<path stroke="#40274e" vector-effect="non-scaling-stroke" d="
  M 74.19 60.04
  L 74.73 57.76"
/>
<path stroke="#140a16" vector-effect="non-scaling-stroke" d="
  M 74.73 57.76
  Q 74.55 57.17 74.26 56.96"
/>
<path stroke="#513b5d" vector-effect="non-scaling-stroke" d="
  M 74.26 56.96
  Q 74.77 55.91 75.81 55.09"
/>
<path stroke="#634470" vector-effect="non-scaling-stroke" d="
  M 74.26 56.96
  L 72.41 58.12"
/>
<path stroke="#513b5d" vector-effect="non-scaling-stroke" d="
  M 45.22 58.27
  C 51.69 70.79 64.36 65.50 72.41 58.12"
/>
<path stroke="#140a16" vector-effect="non-scaling-stroke" d="
  M 72.41 58.12
  Q 73.01 58.29 73.07 58.54"
/>
<path stroke="#40274e" vector-effect="non-scaling-stroke" d="
  M 73.07 58.54
  L 71.46 61.22"
/>
<path stroke="#140a16" vector-effect="non-scaling-stroke" d="
  M 71.46 61.22
  Q 70.09 61.56 69.59 64.28"
/>
<path stroke="#40274e" vector-effect="non-scaling-stroke" d="
  M 69.59 64.28
  Q 64.69 69.26 58.44 72.27"
/>
<path stroke="#605169" vector-effect="non-scaling-stroke" d="
  M 58.44 72.27
  L 52.24 74.22"
/>
<path stroke="#40274e" vector-effect="non-scaling-stroke" d="
  M 65.49 72.33
  Q 59.79 76.44 52.26 78.21"
/>
<path stroke="#9e77b4" vector-effect="non-scaling-stroke" d="
  M 36.19 78.93
  Q 37.63 75.28 42.45 75.94
  C 48.54 76.77 52.96 76.26 58.53 73.53
  Q 58.84 73.38 58.72 73.05
  L 58.44 72.27"
/>
<path stroke="#523061" vector-effect="non-scaling-stroke" d="
  M 69.59 64.28
  Q 71.71 62.99 71.46 61.22"
/>
<path stroke="#523061" vector-effect="non-scaling-stroke" d="
  M 74.73 57.76
  Q 73.82 57.55 73.07 58.54"
/>
<path stroke="#7d797e" vector-effect="non-scaling-stroke" d="
  M 66.95 78.38
  Q 64.82 79.34 66.85 80.53
  Q 67.26 80.77 67.69 80.79
  Q 68.64 80.83 68.49 80.26"
/>
<path stroke="#7d797e" vector-effect="non-scaling-stroke" d="
  M 70.39 80.64
  L 71.51 85.14
  A 0.81 0.81 0.0 0 1 71.23 85.96
  L 68.19 88.40
  Q 67.82 88.69 67.75 89.16
  Q 67.59 90.23 68.65 90.43
  Q 69.18 90.53 69.36 90.02
  C 70.31 87.36 77.05 83.14 79.81 83.98
  A 0.77 0.76 -64.1 0 0 80.66 83.68
  Q 81.05 83.09 80.45 82.27"
/>
<path stroke="#776f79" vector-effect="non-scaling-stroke" d="
  M 80.45 81.24
  L 81.56 78.76"
/>
<path stroke="#490c32" vector-effect="non-scaling-stroke" d="
  M 83.63 82.29
  L 80.77 84.96"
/>
<path stroke="#776f79" vector-effect="non-scaling-stroke" d="
  M 52.77 93.70
  C 53.26 96.11 55.08 96.98 57.17 95.55
  Q 61.11 92.88 62.97 88.34
  Q 63.19 87.81 63.74 87.67
  L 66.49 86.95
  A 0.53 0.53 0.0 0 0 66.88 86.37
  L 66.80 85.78
  Q 66.70 85.09 66.02 85.25
  C 61.11 86.39 61.17 91.92 56.86 94.52
  C 55.29 95.46 54.18 94.72 53.51 93.23"
/>
<path stroke="#776f79" vector-effect="non-scaling-stroke" d="
  M 54.54 89.41
  Q 53.55 91.88 55.25 93.40
  A 0.80 0.79 -36.6 0 0 56.14 93.53
  C 59.89 91.69 60.42 84.04 61.26 80.26
  Q 61.42 79.57 60.65 79.38
  Q 60.11 79.25 59.98 79.79
  L 57.06 91.99
  A 0.67 0.67 0.0 0 1 55.93 92.31
  L 55.57 91.95
  Q 55.30 91.67 55.39 91.30
  L 56.00 88.77"
/>
<path stroke="#89788c" vector-effect="non-scaling-stroke" d="
  M 91.10 33.61
  Q 90.43 33.70 90.47 34.25"
/>
<path stroke="#140a16" vector-effect="non-scaling-stroke" d="
  M 90.47 34.25
  Q 89.90 34.14 89.53 34.59
  A 0.43 0.43 0.0 0 0 89.69 35.27
  Q 92.55 36.49 91.97 39.49
  Q 89.61 51.70 84.73 70.75
  Q 84.65 71.09 86.02 71.02"
/>
<path stroke="#634470" vector-effect="non-scaling-stroke" d="
  M 86.02 71.02
  Q 82.73 76.68 85.63 73.78"
/>
<path stroke="#140a16" vector-effect="non-scaling-stroke" d="
  M 85.63 73.78
  Q 86.11 75.41 87.50 73.76
  Q 91.04 69.52 92.77 64.25
  C 94.92 57.69 96.94 46.80 99.70 35.34
  Q 100.90 30.35 100.87 25.20
  Q 100.85 23.04 99.49 23.28"
/>
<path stroke="#89788c" vector-effect="non-scaling-stroke" d="
  M 99.49 23.28
  Q 98.93 22.77 98.58 23.27"
/>
<path stroke="#140a16" vector-effect="non-scaling-stroke" d="
  M 98.58 23.27
  Q 98.49 22.73 97.58 22.75
  A 0.44 0.44 0.0 0 0 97.15 23.10
  C 96.27 27.65 95.33 30.58 90.76 32.51
  A 0.91 0.22 -84.3 0 0 90.50 33.26
  Q 90.46 33.47 91.10 33.61"
/>
<path stroke="#776f79" vector-effect="non-scaling-stroke" d="
  M 98.58 23.27
  C 97.43 27.77 96.61 32.82 91.10 33.61"
/>
<path stroke="#776f79" vector-effect="non-scaling-stroke" d="
  M 99.49 23.28
  C 99.78 31.74 97.09 40.77 95.19 48.98"
/>
<path stroke="#c6a9d3" vector-effect="non-scaling-stroke" d="
  M 95.19 48.98
  Q 94.59 49.10 94.13 48.95
  Q 93.62 48.78 93.74 48.25
  Q 93.84 47.78 93.68 47.31
  Q 93.43 46.58 93.31 47.34
  C 93.18 48.11 93.20 48.81 92.71 49.44
  Q 91.80 50.63 91.35 48.73"
/>
<path stroke="#776f79" vector-effect="non-scaling-stroke" d="
  M 91.35 48.73
  L 93.77 37.48
  A 0.90 0.90 0.0 0 0 93.45 36.58
  L 90.47 34.25"
/>
<path stroke="#513b5d" vector-effect="non-scaling-stroke" d="
  M 91.35 48.73
  L 86.02 71.02"
/>
<path stroke="#513b5d" vector-effect="non-scaling-stroke" d="
  M 85.63 73.78
  C 92.02 67.60 93.03 59.10 95.19 48.98"
/>
<path stroke="#725a7b" vector-effect="non-scaling-stroke" d="
  M 70.07 75.22
  Q 71.29 75.04 71.95 74.62
  Q 72.22 74.45 72.28 74.18
  Q 72.33 73.95 72.28 73.73
  Q 72.11 73.08 71.57 73.47
  L 69.86 74.71
  A 0.28 0.28 0.0 0 0 70.07 75.22"
/>
<path stroke="#725a7b" vector-effect="non-scaling-stroke" d="
  M 75.83 79.67
  L 74.95 80.95
  A 0.33 0.33 0.0 0 0 75.37 81.43
  Q 76.81 80.67 76.76 78.86
  Q 76.75 78.68 76.66 78.58
  Q 76.53 78.45 76.32 78.48
  Q 76.00 78.52 76.00 78.84
  L 76.00 79.11
  Q 76.00 79.42 75.83 79.67"
/>
<path stroke="#5a1544" vector-effect="non-scaling-stroke" d="
  M 78.30 95.85
  L 77.52 95.18
  A 0.56 0.56 0.0 0 0 76.68 95.90
  C 79.53 100.39 84.01 95.15 84.98 92.24
  Q 86.19 88.57 86.79 84.63
  A 0.51 0.51 0.0 0 0 86.03 84.12
  C 82.94 85.96 86.05 94.98 79.27 96.12
  A 1.20 1.19 -29.2 0 1 78.30 95.85"
/>
<path stroke="#8e8191" vector-effect="non-scaling-stroke" d="
  M 78.7208 90.5993
  A 1.91 0.93 26.4 0 0 77.4235 88.9170
  A 1.91 0.93 26.4 0 0 75.2992 88.9007
  A 1.91 0.93 26.4 0 0 76.5965 90.5830
  A 1.91 0.93 26.4 0 0 78.7208 90.5993"
/>
<path stroke="#7d797e" vector-effect="non-scaling-stroke" d="
  M 49.32 47.80
  L 49.05 48.08
  A 0.42 0.42 0.0 0 0 49.26 48.79
  C 58.01 50.51 69.53 48.56 68.85 36.90
  A 0.73 0.72 59.1 0 0 67.51 36.56
  L 66.44 38.31
  Q 66.16 38.78 66.46 39.23
  C 71.41 46.58 54.47 46.39 51.76 46.20
  Q 50.21 46.09 49.53 47.52
  A 0.99 0.96 82.8 0 1 49.32 47.80"
/>
<path stroke="#89788c" vector-effect="non-scaling-stroke" d="
  M 39.85 34.90
  L 41.50 34.30"
/>
<path stroke="#776f79" vector-effect="non-scaling-stroke" d="
  M 41.50 34.30
  C 46.49 32.98 60.16 26.32 54.56 18.80
  C 52.88 16.55 48.75 15.99 45.98 15.95
  C 41.27 15.88 39.61 18.85 38.74 23.01
  Q 37.51 28.97 36.22 35.07
  Q 36.10 35.63 36.67 35.65
  Q 38.24 35.72 39.85 34.90"
/>
<path stroke="#140a16" vector-effect="non-scaling-stroke" d="
  M 41.50 34.30
  Q 41.08 34.12 40.99 33.72
  A 0.76 0.76 0.0 0 1 41.42 32.87
  C 45.99 30.85 58.65 26.60 52.73 18.85
  Q 52.45 18.49 52.00 18.39
  C 47.16 17.34 42.04 15.35 40.39 22.12
  Q 39.12 27.35 38.07 32.79
  Q 37.97 33.32 38.43 33.59
  Q 39.41 34.18 39.85 34.90"
/>
<path stroke="#776f79" vector-effect="non-scaling-stroke" d="
  M 65.07 81.82
  L 65.35 83.00
  A 0.49 0.49 0.0 0 0 66.30 83.01
  Q 67.12 79.73 64.16 80.00
  Q 62.91 80.11 63.99 80.75
  L 64.52 81.07
  Q 64.95 81.33 65.07 81.82"
/>
<path stroke="#40274e" vector-effect="non-scaling-stroke" d="
  M 62.67 83.07
  L 62.25 84.69
  Q 62.00 85.66 62.87 85.17
  Q 64.78 84.10 63.39 82.21
  A 0.34 0.33 -59.7 0 0 62.79 82.37
  L 62.75 82.64
  Q 62.72 82.86 62.67 83.07"
/>
</g>
<path fill="#251228" d="
  M 117.40 42.72
  Q 116.91 43.82 115.79 44.56
  Q 116.82 40.15 113.94 39.88
  Q 114.19 39.14 113.84 38.80
  Q 113.58 38.54 113.00 38.72
  Q 108.66 40.01 108.43 44.41
  C 108.32 46.53 109.94 47.75 107.48 49.97
  A 0.86 0.85 62.5 0 0 107.22 50.81
  C 107.66 52.63 109.11 53.22 110.78 52.24
  Q 114.30 50.17 117.84 46.64
  L 117.91 55.17
  Q 112.68 59.29 109.18 60.41
  C 105.26 61.67 101.28 58.31 103.71 54.17
  Q 103.89 53.84 103.74 53.54
  Q 103.49 53.02 103.17 53.50
  Q 100.11 58.07 100.74 62.55
  C 104.59 68.34 114.82 66.71 116.33 59.73
  Q 116.51 58.14 117.73 56.41
  Q 118.25 58.36 118.04 59.76
  C 109.21 118.51 26.94 121.68 14.15 63.51
  Q 14.85 62.73 15.88 62.29
  L 17.46 63.81
  Q 17.72 64.03 17.74 64.27
  Q 17.06 64.14 16.70 64.29
  A 0.36 0.35 -38.8 0 0 16.63 64.91
  C 23.67 69.82 36.06 66.62 36.72 56.77
  Q 36.74 56.34 35.72 56.77
  Q 36.00 56.38 36.07 56.01
  Q 36.17 55.42 35.69 55.76
  L 34.59 56.53
  Q 34.31 56.21 33.67 56.23
  A 1.46 1.45 23.5 0 0 32.79 56.57
  C 29.85 59.11 23.52 62.17 20.23 58.61
  C 17.10 55.22 20.88 53.97 20.61 50.93
  Q 20.50 49.61 19.09 49.34
  A 1.33 1.33 0.0 0 0 17.69 49.97
  L 13.40 57.31
  C 9.30 11.08 62.28 -15.55 98.27 11.70
  Q 113.12 22.94 117.40 42.72
  Z
  M 80.67 15.64
  L 72.25 51.56
  Q 72.09 52.21 72.72 51.98
  L 73.46 51.70
  Q 73.44 52.14 73.64 52.31
  L 71.51 53.90
  Q 69.19 54.19 67.13 55.73
  C 60.14 60.95 51.50 61.66 48.27 51.67
  A 0.85 0.85 0.0 0 1 49.17 50.57
  C 58.14 51.53 72.60 49.03 69.82 36.25
  A 1.57 1.57 0.0 0 0 67.42 35.27
  Q 64.06 37.49 65.83 41.00
  A 0.97 0.96 -43.5 0 1 65.80 41.93
  Q 64.45 44.25 61.60 43.95
  A 1.62 1.59 33.4 0 0 60.68 44.13
  C 57.76 45.72 53.77 44.74 50.41 45.37
  Q 49.91 45.46 49.56 45.81
  L 47.27 48.10
  A 0.52 0.51 56.7 0 1 46.43 47.92
  L 43.05 39.20
  A 0.99 0.99 0.0 0 1 43.85 37.86
  Q 55.47 36.53 59.75 26.54
  C 62.26 20.67 60.11 15.03 54.01 13.04
  Q 46.02 10.42 39.13 15.67
  Q 34.51 19.18 32.98 26.24
  Q 30.69 36.85 28.47 47.46
  C 28.11 49.18 27.11 50.73 26.55 52.47
  A 0.43 0.43 0.0 0 0 27.00 53.03
  L 27.44 52.98
  Q 27.05 53.27 28.55 53.50
  Q 32.85 52.00 34.50 47.20
  Q 35.69 43.71 36.42 42.09
  Q 36.81 41.22 37.19 42.09
  C 41.60 52.28 43.94 66.62 57.79 67.58
  A 1.87 1.86 -56.2 0 1 58.49 71.11
  L 52.24 74.22
  C 46.64 76.97 40.53 71.88 35.61 76.95
  C 33.10 79.53 31.29 83.46 31.17 87.21
  A 0.51 0.51 0.0 0 0 32.09 87.52
  Q 32.44 87.01 32.45 86.24
  Q 32.51 82.34 36.19 78.93
  L 52.26 78.21
  Q 53.94 79.56 56.84 78.26
  A 1.25 1.25 0.0 0 1 58.58 79.65
  Q 57.74 83.74 56.82 87.81
  Q 56.71 88.30 56.00 88.77
  Q 55.28 88.88 54.54 89.41
  Q 53.18 89.01 52.86 91.42
  Q 52.79 91.92 53.09 92.32
  Q 53.43 92.78 53.51 93.23
  Q 52.56 93.16 52.77 93.70
  Q 51.24 93.93 52.12 95.44
  C 55.62 101.42 61.63 93.31 63.42 89.94
  A 1.76 1.76 0.0 0 1 66.34 89.65
  L 68.05 91.75
  Q 68.39 92.18 68.92 92.02
  Q 70.06 91.67 70.57 90.58
  Q 70.79 90.12 71.17 89.77
  Q 75.66 85.77 80.77 84.96
  C 83.27 85.73 81.61 89.00 81.25 90.73
  Q 81.07 91.63 82.22 91.72
  A 0.58 0.57 7.2 0 0 82.83 91.25
  C 83.30 88.66 83.38 86.96 84.65 84.47
  Q 86.07 81.70 86.46 78.53
  Q 86.52 78.00 85.99 77.99
  Q 85.43 77.98 85.29 78.55
  Q 84.79 80.61 83.63 82.29
  Q 81.98 81.59 82.93 79.47
  Q 83.17 78.94 82.69 78.59
  Q 82.25 78.26 81.56 78.76
  Q 81.56 78.58 81.50 78.46
  A 0.31 0.31 0.0 0 0 80.96 78.41
  L 79.58 80.47
  A 0.45 0.45 0.0 0 0 79.63 81.04
  Q 79.94 81.36 80.45 81.24
  Q 80.56 81.74 80.45 82.27
  C 78.20 81.36 75.32 83.42 73.21 84.40
  A 0.42 0.42 0.0 0 1 72.61 84.04
  Q 72.50 81.25 70.39 80.64
  Q 70.21 79.47 68.49 80.26
  Q 67.35 79.93 66.95 78.38
  Q 67.16 77.87 66.86 77.54
  A 0.53 0.52 49.2 0 0 66.16 77.48
  L 63.82 79.24
  A 0.64 0.63 48.6 0 1 62.98 79.18
  L 61.26 77.46
  A 0.63 0.62 -33.6 0 1 61.47 76.44
  Q 63.07 75.78 64.29 74.90
  Q 66.68 73.15 65.49 72.33
  Q 71.96 67.51 74.19 60.04
  L 74.04 61.80
  Q 74.02 62.00 74.23 62.00
  Q 74.41 62.00 74.58 62.00
  Q 74.83 62.00 74.89 61.77
  L 76.32 56.64
  Q 76.44 56.24 76.74 55.94
  C 79.44 53.29 81.29 51.27 82.36 47.41
  Q 83.13 44.62 83.98 41.87
  A 0.50 0.50 0.0 0 0 83.60 41.23
  Q 83.39 41.18 83.10 41.20
  Q 83.68 40.48 83.25 40.52
  Q 82.45 40.59 82.10 41.80
  Q 81.77 41.26 81.07 41.58
  Q 78.87 42.60 79.40 40.42
  L 84.85 18.11
  Q 84.99 17.57 85.50 17.33
  C 87.42 16.46 90.15 15.79 89.70 13.04
  A 0.64 0.63 -6.1 0 0 89.04 12.51
  L 88.19 12.56
  L 87.83 12.21
  Q 87.48 11.88 87.05 12.08
  Q 84.82 13.08 82.97 11.54
  A 1.11 1.05 -18.5 0 0 82.43 11.29
  Q 79.29 10.80 77.60 13.33
  A 1.23 1.23 0.0 0 0 78.40 15.22
  L 80.67 15.64
  Z
  M 91.10 33.61
  Q 90.43 33.70 90.47 34.25
  Q 89.90 34.14 89.53 34.59
  A 0.43 0.43 0.0 0 0 89.69 35.27
  Q 92.55 36.49 91.97 39.49
  Q 89.61 51.70 84.73 70.75
  Q 84.65 71.09 86.02 71.02
  Q 82.73 76.68 85.63 73.78
  Q 86.11 75.41 87.50 73.76
  Q 91.04 69.52 92.77 64.25
  C 94.92 57.69 96.94 46.80 99.70 35.34
  Q 100.90 30.35 100.87 25.20
  Q 100.85 23.04 99.49 23.28
  Q 98.93 22.77 98.58 23.27
  Q 98.49 22.73 97.58 22.75
  A 0.44 0.44 0.0 0 0 97.15 23.10
  C 96.27 27.65 95.33 30.58 90.76 32.51
  A 0.91 0.22 -84.3 0 0 90.50 33.26
  Q 90.46 33.47 91.10 33.61
  Z
  M 70.07 75.22
  Q 71.29 75.04 71.95 74.62
  Q 72.22 74.45 72.28 74.18
  Q 72.33 73.95 72.28 73.73
  Q 72.11 73.08 71.57 73.47
  L 69.86 74.71
  A 0.28 0.28 0.0 0 0 70.07 75.22
  Z
  M 75.83 79.67
  L 74.95 80.95
  A 0.33 0.33 0.0 0 0 75.37 81.43
  Q 76.81 80.67 76.76 78.86
  Q 76.75 78.68 76.66 78.58
  Q 76.53 78.45 76.32 78.48
  Q 76.00 78.52 76.00 78.84
  L 76.00 79.11
  Q 76.00 79.42 75.83 79.67
  Z
  M 78.30 95.85
  L 77.52 95.18
  A 0.56 0.56 0.0 0 0 76.68 95.90
  C 79.53 100.39 84.01 95.15 84.98 92.24
  Q 86.19 88.57 86.79 84.63
  A 0.51 0.51 0.0 0 0 86.03 84.12
  C 82.94 85.96 86.05 94.98 79.27 96.12
  A 1.20 1.19 -29.2 0 1 78.30 95.85
  Z
  M 78.7208 90.5993
  A 1.91 0.93 26.4 0 0 77.4235 88.9170
  A 1.91 0.93 26.4 0 0 75.2992 88.9007
  A 1.91 0.93 26.4 0 0 76.5965 90.5830
  A 1.91 0.93 26.4 0 0 78.7208 90.5993
  Z"
/>
<path fill="#ecddef" d="
  M 88.19 12.56
  L 88.73 13.81
  Q 89.04 14.51 88.30 14.70
  L 84.38 15.73
  Q 83.92 15.85 83.81 16.31
  Q 80.56 30.23 77.05 44.00
  Q 76.06 47.90 73.83 51.10
  Q 73.17 51.03 73.18 50.05
  Q 73.19 49.58 73.51 48.98
  C 75.23 45.69 75.70 42.04 76.46 39.13
  C 77.91 33.57 78.98 28.06 80.75 22.58
  Q 81.89 19.03 80.67 15.64
  L 78.40 15.22
  A 1.23 1.23 0.0 0 1 77.60 13.33
  Q 79.29 10.80 82.43 11.29
  A 1.11 1.05 -18.5 0 1 82.97 11.54
  Q 84.82 13.08 87.05 12.08
  Q 87.48 11.88 87.83 12.21
  L 88.19 12.56
  Z"
/>
<path fill="#020103" d="
  M 71.51 53.90
  Q 65.08 60.32 56.76 60.76
  C 47.78 61.24 43.42 43.47 40.63 37.07
  Q 40.42 36.59 40.94 36.60
  Q 49.65 36.62 55.57 30.71
  C 61.38 24.90 61.02 15.02 51.19 13.82
  C 44.61 13.02 36.23 16.83 34.73 24.25
  Q 32.57 34.94 30.05 45.56
  Q 28.93 50.28 27.44 52.98
  L 27.00 53.03
  A 0.43 0.43 0.0 0 1 26.55 52.47
  C 27.11 50.73 28.11 49.18 28.47 47.46
  Q 30.69 36.85 32.98 26.24
  Q 34.51 19.18 39.13 15.67
  Q 46.02 10.42 54.01 13.04
  C 60.11 15.03 62.26 20.67 59.75 26.54
  Q 55.47 36.53 43.85 37.86
  A 0.99 0.99 0.0 0 0 43.05 39.20
  L 46.43 47.92
  A 0.52 0.51 56.7 0 0 47.27 48.10
  L 49.56 45.81
  Q 49.91 45.46 50.41 45.37
  C 53.77 44.74 57.76 45.72 60.68 44.13
  A 1.62 1.59 33.4 0 1 61.60 43.95
  Q 64.45 44.25 65.80 41.93
  A 0.97 0.96 -43.5 0 0 65.83 41.00
  Q 64.06 37.49 67.42 35.27
  A 1.57 1.57 0.0 0 1 69.82 36.25
  C 72.60 49.03 58.14 51.53 49.17 50.57
  A 0.85 0.85 0.0 0 0 48.27 51.67
  C 51.50 61.66 60.14 60.95 67.13 55.73
  Q 69.19 54.19 71.51 53.90
  Z
  M 49.32 47.80
  L 49.05 48.08
  A 0.42 0.42 0.0 0 0 49.26 48.79
  C 58.01 50.51 69.53 48.56 68.85 36.90
  A 0.73 0.72 59.1 0 0 67.51 36.56
  L 66.44 38.31
  Q 66.16 38.78 66.46 39.23
  C 71.41 46.58 54.47 46.39 51.76 46.20
  Q 50.21 46.09 49.53 47.52
  A 0.99 0.96 82.8 0 1 49.32 47.80
  Z"
/>
<path fill="#020103" d="
  M 88.19 12.56
  L 89.04 12.51
  A 0.64 0.63 -6.1 0 1 89.70 13.04
  C 90.15 15.79 87.42 16.46 85.50 17.33
  Q 84.99 17.57 84.85 18.11
  L 79.40 40.42
  Q 78.87 42.60 81.07 41.58
  Q 81.77 41.26 82.10 41.80
  Q 78.55 48.15 73.64 52.31
  Q 73.44 52.14 73.46 51.70
  Q 73.70 51.45 73.83 51.10
  Q 76.06 47.90 77.05 44.00
  Q 80.56 30.23 83.81 16.31
  Q 83.92 15.85 84.38 15.73
  L 88.30 14.70
  Q 89.04 14.51 88.73 13.81
  L 88.19 12.56
  Z"
/>
<path fill="#ecddef" d="
  M 71.51 53.90
  L 73.64 52.31
  Q 78.55 48.15 82.10 41.80
  Q 82.45 40.59 83.25 40.52
  Q 83.68 40.48 83.10 41.20
  L 79.65 50.74
  A 1.28 1.27 -13.9 0 1 79.37 51.20
  L 75.81 55.09
  L 74.28 54.26
  Q 73.84 54.03 73.46 54.35
  C 65.20 61.44 53.80 67.69 46.31 54.88
  A 0.71 0.71 0.0 0 0 45.15 54.79
  Q 44.98 55.00 45.05 55.31
  Q 45.10 55.50 45.33 55.73
  Q 46.84 57.28 45.22 58.27
  L 36.57 37.45
  A 0.63 0.63 0.0 0 0 35.36 37.65
  Q 34.80 46.50 28.55 53.50
  Q 27.05 53.27 27.44 52.98
  Q 28.93 50.28 30.05 45.56
  Q 32.57 34.94 34.73 24.25
  C 36.23 16.83 44.61 13.02 51.19 13.82
  C 61.02 15.02 61.38 24.90 55.57 30.71
  Q 49.65 36.62 40.94 36.60
  Q 40.42 36.59 40.63 37.07
  C 43.42 43.47 47.78 61.24 56.76 60.76
  Q 65.08 60.32 71.51 53.90
  Z
  M 39.85 34.90
  L 41.50 34.30
  C 46.49 32.98 60.16 26.32 54.56 18.80
  C 52.88 16.55 48.75 15.99 45.98 15.95
  C 41.27 15.88 39.61 18.85 38.74 23.01
  Q 37.51 28.97 36.22 35.07
  Q 36.10 35.63 36.67 35.65
  Q 38.24 35.72 39.85 34.90
  Z"
/>
<path fill="#020103" d="
  M 41.50 34.30
  Q 41.08 34.12 40.99 33.72
  A 0.76 0.76 0.0 0 1 41.42 32.87
  C 45.99 30.85 58.65 26.60 52.73 18.85
  Q 52.45 18.49 52.00 18.39
  C 47.16 17.34 42.04 15.35 40.39 22.12
  Q 39.12 27.35 38.07 32.79
  Q 37.97 33.32 38.43 33.59
  Q 39.41 34.18 39.85 34.90
  Q 38.24 35.72 36.67 35.65
  Q 36.10 35.63 36.22 35.07
  Q 37.51 28.97 38.74 23.01
  C 39.61 18.85 41.27 15.88 45.98 15.95
  C 48.75 15.99 52.88 16.55 54.56 18.80
  C 60.16 26.32 46.49 32.98 41.50 34.30
  Z"
/>
<path fill="#bea1ce" d="
  M 80.67 15.64
  Q 81.89 19.03 80.75 22.58
  C 78.98 28.06 77.91 33.57 76.46 39.13
  C 75.70 42.04 75.23 45.69 73.51 48.98
  Q 73.19 49.58 73.18 50.05
  Q 73.17 51.03 73.83 51.10
  Q 73.70 51.45 73.46 51.70
  L 72.72 51.98
  Q 72.09 52.21 72.25 51.56
  L 80.67 15.64
  Z"
/>
<path fill="#251228" d="
  M 41.50 34.30
  L 39.85 34.90
  Q 39.41 34.18 38.43 33.59
  Q 37.97 33.32 38.07 32.79
  Q 39.12 27.35 40.39 22.12
  C 42.04 15.35 47.16 17.34 52.00 18.39
  Q 52.45 18.49 52.73 18.85
  C 58.65 26.60 45.99 30.85 41.42 32.87
  A 0.76 0.76 0.0 0 0 40.99 33.72
  Q 41.08 34.12 41.50 34.30
  Z"
/>
<path fill="#020103" d="
  M 98.58 23.27
  C 97.43 27.77 96.61 32.82 91.10 33.61
  Q 90.46 33.47 90.50 33.26
  A 0.91 0.22 -84.3 0 1 90.76 32.51
  C 95.33 30.58 96.27 27.65 97.15 23.10
  A 0.44 0.44 0.0 0 1 97.58 22.75
  Q 98.49 22.73 98.58 23.27
  Z"
/>
<path fill="#ecddef" d="
  M 99.49 23.28
  C 99.78 31.74 97.09 40.77 95.19 48.98
  Q 94.59 49.10 94.13 48.95
  Q 93.62 48.78 93.74 48.25
  Q 93.84 47.78 93.68 47.31
  Q 93.43 46.58 93.31 47.34
  C 93.18 48.11 93.20 48.81 92.71 49.44
  Q 91.80 50.63 91.35 48.73
  L 93.77 37.48
  A 0.90 0.90 0.0 0 0 93.45 36.58
  L 90.47 34.25
  Q 90.43 33.70 91.10 33.61
  C 96.61 32.82 97.43 27.77 98.58 23.27
  Q 98.93 22.77 99.49 23.28
  Z"
/>
<path fill="#020103" d="
  M 99.49 23.28
  Q 100.85 23.04 100.87 25.20
  Q 100.90 30.35 99.70 35.34
  C 96.94 46.80 94.92 57.69 92.77 64.25
  Q 91.04 69.52 87.50 73.76
  Q 86.11 75.41 85.63 73.78
  C 92.02 67.60 93.03 59.10 95.19 48.98
  C 97.09 40.77 99.78 31.74 99.49 23.28
  Z"
/>
<path fill="#020103" d="
  M 90.47 34.25
  L 93.45 36.58
  A 0.90 0.90 0.0 0 1 93.77 37.48
  L 91.35 48.73
  L 86.02 71.02
  Q 84.65 71.09 84.73 70.75
  Q 89.61 51.70 91.97 39.49
  Q 92.55 36.49 89.69 35.27
  A 0.43 0.43 0.0 0 1 89.53 34.59
  Q 89.90 34.14 90.47 34.25
  Z"
/>
<path fill="#f7f0f9" d="
  M 49.53 47.52
  Q 50.21 46.09 51.76 46.20
  C 54.47 46.39 71.41 46.58 66.46 39.23
  Q 66.16 38.78 66.44 38.31
  L 67.51 36.56
  A 0.73 0.72 59.1 0 1 68.85 36.90
  C 69.53 48.56 58.01 50.51 49.26 48.79
  A 0.42 0.42 0.0 0 1 49.05 48.08
  L 49.32 47.80
  A 0.99 0.96 82.8 0 0 49.53 47.52
  Z"
/>
<path fill="#020103" d="
  M 45.22 58.27
  C 51.69 70.79 64.36 65.50 72.41 58.12
  Q 73.01 58.29 73.07 58.54
  L 71.46 61.22
  Q 70.09 61.56 69.59 64.28
  Q 64.69 69.26 58.44 72.27
  L 52.24 74.22
  L 58.49 71.11
  A 1.87 1.86 -56.2 0 0 57.79 67.58
  C 43.94 66.62 41.60 52.28 37.19 42.09
  Q 36.81 41.22 36.42 42.09
  Q 35.69 43.71 34.50 47.20
  Q 32.85 52.00 28.55 53.50
  Q 34.80 46.50 35.36 37.65
  A 0.63 0.63 0.0 0 1 36.57 37.45
  L 45.22 58.27
  Z"
/>
<path fill="#020103" d="
  M 113.94 39.88
  Q 108.33 40.52 110.09 46.56
  Q 110.23 47.06 110.01 47.52
  L 108.60 50.41
  A 0.76 0.76 0.0 0 0 109.50 51.47
  Q 114.73 49.95 115.79 44.56
  Q 116.91 43.82 117.40 42.72
  L 117.84 46.64
  Q 114.30 50.17 110.78 52.24
  C 109.11 53.22 107.66 52.63 107.22 50.81
  A 0.86 0.85 62.5 0 1 107.48 49.97
  C 109.94 47.75 108.32 46.53 108.43 44.41
  Q 108.66 40.01 113.00 38.72
  Q 113.58 38.54 113.84 38.80
  Q 114.19 39.14 113.94 39.88
  Z"
/>
<path fill="#bea1ce" d="
  M 113.94 39.88
  Q 116.82 40.15 115.79 44.56
  Q 114.73 49.95 109.50 51.47
  A 0.76 0.76 0.0 0 1 108.60 50.41
  L 110.01 47.52
  Q 110.23 47.06 110.09 46.56
  Q 108.33 40.52 113.94 39.88
  Z"
/>
<path fill="#020103" d="
  M 83.10 41.20
  Q 83.39 41.18 83.60 41.23
  A 0.50 0.50 0.0 0 1 83.98 41.87
  Q 83.13 44.62 82.36 47.41
  C 81.29 51.27 79.44 53.29 76.74 55.94
  Q 76.44 56.24 76.32 56.64
  L 74.89 61.77
  Q 74.83 62.00 74.58 62.00
  Q 74.41 62.00 74.23 62.00
  Q 74.02 62.00 74.04 61.80
  L 74.19 60.04
  L 74.73 57.76
  Q 74.55 57.17 74.26 56.96
  Q 74.77 55.91 75.81 55.09
  L 79.37 51.20
  A 1.28 1.27 -13.9 0 0 79.65 50.74
  L 83.10 41.20
  Z"
/>
<path fill="#a075b7" d="
  M 95.19 48.98
  C 93.03 59.10 92.02 67.60 85.63 73.78
  Q 82.73 76.68 86.02 71.02
  L 91.35 48.73
  Q 91.80 50.63 92.71 49.44
  C 93.20 48.81 93.18 48.11 93.31 47.34
  Q 93.43 46.58 93.68 47.31
  Q 93.84 47.78 93.74 48.25
  Q 93.62 48.78 94.13 48.95
  Q 94.59 49.10 95.19 48.98
  Z"
/>
<path fill="#020103" d="
  M 34.59 56.53
  C 31.13 60.00 25.24 63.31 20.52 60.39
  C 16.85 58.11 17.24 54.01 19.71 51.02
  Q 19.91 50.78 19.69 50.56
  L 19.46 50.33
  Q 19.16 50.03 18.90 50.37
  Q 14.66 55.85 15.88 62.29
  Q 14.85 62.73 14.15 63.51
  L 13.40 57.31
  L 17.69 49.97
  A 1.33 1.33 0.0 0 1 19.09 49.34
  Q 20.50 49.61 20.61 50.93
  C 20.88 53.97 17.10 55.22 20.23 58.61
  C 23.52 62.17 29.85 59.11 32.79 56.57
  A 1.46 1.45 23.5 0 1 33.67 56.23
  Q 34.31 56.21 34.59 56.53
  Z"
/>
<path fill="#f7f0f9" d="
  M 34.59 56.53
  L 35.69 55.76
  Q 36.17 55.42 36.07 56.01
  Q 36.00 56.38 35.72 56.77
  Q 35.02 63.19 29.60 64.55
  Q 27.65 63.49 32.04 61.80
  Q 32.92 61.46 32.44 60.59
  Q 32.22 60.18 31.84 60.47
  Q 24.80 65.80 17.88 60.50
  Q 17.33 60.08 17.24 60.77
  Q 17.08 62.00 18.05 62.71
  A 0.53 0.52 36.4 0 1 18.17 63.46
  Q 17.92 63.78 17.46 63.81
  L 15.88 62.29
  Q 14.66 55.85 18.90 50.37
  Q 19.16 50.03 19.46 50.33
  L 19.69 50.56
  Q 19.91 50.78 19.71 51.02
  C 17.24 54.01 16.85 58.11 20.52 60.39
  C 25.24 63.31 31.13 60.00 34.59 56.53
  Z"
/>
<path fill="#bea1ce" d="
  M 117.91 55.17
  L 117.73 56.41
  Q 116.51 58.14 116.33 59.73
  Q 113.99 59.46 111.37 60.68
  C 107.97 62.25 105.62 63.51 103.10 60.41
  A 0.67 0.66 20.1 0 0 101.93 60.95
  Q 102.40 63.36 100.74 62.55
  Q 100.11 58.07 103.17 53.50
  Q 103.49 53.02 103.74 53.54
  Q 103.89 53.84 103.71 54.17
  C 101.28 58.31 105.26 61.67 109.18 60.41
  Q 112.68 59.29 117.91 55.17
  Z"
/>
<path fill="#a075b7" d="
  M 75.81 55.09
  Q 74.77 55.91 74.26 56.96
  L 72.41 58.12
  C 64.36 65.50 51.69 70.79 45.22 58.27
  Q 46.84 57.28 45.33 55.73
  Q 45.10 55.50 45.05 55.31
  Q 44.98 55.00 45.15 54.79
  A 0.71 0.71 0.0 0 1 46.31 54.88
  C 53.80 67.69 65.20 61.44 73.46 54.35
  Q 73.84 54.03 74.28 54.26
  L 75.81 55.09
  Z"
/>
<path fill="#020103" d="
  M 17.74 64.27
  Q 23.50 67.11 29.60 64.55
  Q 35.02 63.19 35.72 56.77
  Q 36.74 56.34 36.72 56.77
  C 36.06 66.62 23.67 69.82 16.63 64.91
  A 0.36 0.35 -38.8 0 1 16.70 64.29
  Q 17.06 64.14 17.74 64.27
  Z"
/>
<path fill="#251228" d="
  M 74.26 56.96
  Q 74.55 57.17 74.73 57.76
  Q 73.82 57.55 73.07 58.54
  Q 73.01 58.29 72.41 58.12
  L 74.26 56.96
  Z"
/>
<path fill="#7e4d99" d="
  M 74.73 57.76
  L 74.19 60.04
  Q 71.96 67.51 65.49 72.33
  Q 59.79 76.44 52.26 78.21
  L 36.19 78.93
  Q 37.63 75.28 42.45 75.94
  C 48.54 76.77 52.96 76.26 58.53 73.53
  Q 58.84 73.38 58.72 73.05
  L 58.44 72.27
  Q 64.69 69.26 69.59 64.28
  Q 71.71 62.99 71.46 61.22
  L 73.07 58.54
  Q 73.82 57.55 74.73 57.76
  Z"
/>
<path fill="#7e4d99" d="
  M 116.33 59.73
  C 114.82 66.71 104.59 68.34 100.74 62.55
  Q 102.40 63.36 101.93 60.95
  A 0.67 0.66 20.1 0 1 103.10 60.41
  C 105.62 63.51 107.97 62.25 111.37 60.68
  Q 113.99 59.46 116.33 59.73
  Z"
/>
<path fill="#bea1ce" d="
  M 29.60 64.55
  Q 23.50 67.11 17.74 64.27
  Q 17.72 64.03 17.46 63.81
  Q 17.92 63.78 18.17 63.46
  A 0.53 0.52 36.4 0 0 18.05 62.71
  Q 17.08 62.00 17.24 60.77
  Q 17.33 60.08 17.88 60.50
  Q 24.80 65.80 31.84 60.47
  Q 32.22 60.18 32.44 60.59
  Q 32.92 61.46 32.04 61.80
  Q 27.65 63.49 29.60 64.55
  Z"
/>
<path fill="#251228" d="
  M 71.46 61.22
  Q 71.71 62.99 69.59 64.28
  Q 70.09 61.56 71.46 61.22
  Z"
/>
<path fill="#bea1ce" d="
  M 58.44 72.27
  L 58.72 73.05
  Q 58.84 73.38 58.53 73.53
  C 52.96 76.26 48.54 76.77 42.45 75.94
  Q 37.63 75.28 36.19 78.93
  Q 32.51 82.34 32.45 86.24
  Q 32.44 87.01 32.09 87.52
  A 0.51 0.51 0.0 0 1 31.17 87.21
  C 31.29 83.46 33.10 79.53 35.61 76.95
  C 40.53 71.88 46.64 76.97 52.24 74.22
  L 58.44 72.27
  Z"
/>
<path fill="#020103" d="
  M 65.49 72.33
  Q 66.68 73.15 64.29 74.90
  Q 63.07 75.78 61.47 76.44
  A 0.63 0.62 -33.6 0 0 61.26 77.46
  L 62.98 79.18
  A 0.64 0.63 48.6 0 0 63.82 79.24
  L 66.16 77.48
  A 0.53 0.52 49.2 0 1 66.86 77.54
  Q 67.16 77.87 66.95 78.38
  Q 64.82 79.34 66.85 80.53
  Q 67.26 80.77 67.69 80.79
  Q 68.64 80.83 68.49 80.26
  Q 70.21 79.47 70.39 80.64
  L 71.51 85.14
  A 0.81 0.81 0.0 0 1 71.23 85.96
  L 68.19 88.40
  Q 67.82 88.69 67.75 89.16
  Q 67.59 90.23 68.65 90.43
  Q 69.18 90.53 69.36 90.02
  C 70.31 87.36 77.05 83.14 79.81 83.98
  A 0.77 0.76 -64.1 0 0 80.66 83.68
  Q 81.05 83.09 80.45 82.27
  Q 80.56 81.74 80.45 81.24
  L 81.56 78.76
  Q 82.25 78.26 82.69 78.59
  Q 83.17 78.94 82.93 79.47
  Q 81.98 81.59 83.63 82.29
  L 80.77 84.96
  Q 75.66 85.77 71.17 89.77
  Q 70.79 90.12 70.57 90.58
  Q 70.06 91.67 68.92 92.02
  Q 68.39 92.18 68.05 91.75
  L 66.34 89.65
  A 1.76 1.76 0.0 0 0 63.42 89.94
  C 61.63 93.31 55.62 101.42 52.12 95.44
  Q 51.24 93.93 52.77 93.70
  C 53.26 96.11 55.08 96.98 57.17 95.55
  Q 61.11 92.88 62.97 88.34
  Q 63.19 87.81 63.74 87.67
  L 66.49 86.95
  A 0.53 0.53 0.0 0 0 66.88 86.37
  L 66.80 85.78
  Q 66.70 85.09 66.02 85.25
  C 61.11 86.39 61.17 91.92 56.86 94.52
  C 55.29 95.46 54.18 94.72 53.51 93.23
  Q 53.43 92.78 53.09 92.32
  Q 52.79 91.92 52.86 91.42
  Q 53.18 89.01 54.54 89.41
  Q 53.55 91.88 55.25 93.40
  A 0.80 0.79 -36.6 0 0 56.14 93.53
  C 59.89 91.69 60.42 84.04 61.26 80.26
  Q 61.42 79.57 60.65 79.38
  Q 60.11 79.25 59.98 79.79
  L 57.06 91.99
  A 0.67 0.67 0.0 0 1 55.93 92.31
  L 55.57 91.95
  Q 55.30 91.67 55.39 91.30
  L 56.00 88.77
  Q 56.71 88.30 56.82 87.81
  Q 57.74 83.74 58.58 79.65
  A 1.25 1.25 0.0 0 0 56.84 78.26
  Q 53.94 79.56 52.26 78.21
  Q 59.79 76.44 65.49 72.33
  Z
  M 65.07 81.82
  L 65.35 83.00
  A 0.49 0.49 0.0 0 0 66.30 83.01
  Q 67.12 79.73 64.16 80.00
  Q 62.91 80.11 63.99 80.75
  L 64.52 81.07
  Q 64.95 81.33 65.07 81.82
  Z
  M 62.67 83.07
  L 62.25 84.69
  Q 62.00 85.66 62.87 85.17
  Q 64.78 84.10 63.39 82.21
  A 0.34 0.33 -59.7 0 0 62.79 82.37
  L 62.75 82.64
  Q 62.72 82.86 62.67 83.07
  Z"
/>
<path fill="#bea1ce" d="
  M 70.07 75.22
  A 0.28 0.28 0.0 0 1 69.86 74.71
  L 71.57 73.47
  Q 72.11 73.08 72.28 73.73
  Q 72.33 73.95 72.28 74.18
  Q 72.22 74.45 71.95 74.62
  Q 71.29 75.04 70.07 75.22
  Z"
/>
<path fill="#8f1760" d="
  M 80.77 84.96
  L 83.63 82.29
  Q 84.79 80.61 85.29 78.55
  Q 85.43 77.98 85.99 77.99
  Q 86.52 78.00 86.46 78.53
  Q 86.07 81.70 84.65 84.47
  C 83.38 86.96 83.30 88.66 82.83 91.25
  A 0.58 0.57 7.2 0 1 82.22 91.72
  Q 81.07 91.63 81.25 90.73
  C 81.61 89.00 83.27 85.73 80.77 84.96
  Z"
/>
<path fill="#ecddef" d="
  M 81.56 78.76
  L 80.45 81.24
  Q 79.94 81.36 79.63 81.04
  A 0.45 0.45 0.0 0 1 79.58 80.47
  L 80.96 78.41
  A 0.31 0.31 0.0 0 1 81.50 78.46
  Q 81.56 78.58 81.56 78.76
  Z"
/>
<path fill="#f7f0f9" d="
  M 66.95 78.38
  Q 67.35 79.93 68.49 80.26
  Q 68.64 80.83 67.69 80.79
  Q 67.26 80.77 66.85 80.53
  Q 64.82 79.34 66.95 78.38
  Z"
/>
<path fill="#bea1ce" d="
  M 76.00 79.11
  L 76.00 78.84
  Q 76.00 78.52 76.32 78.48
  Q 76.53 78.45 76.66 78.58
  Q 76.75 78.68 76.76 78.86
  Q 76.81 80.67 75.37 81.43
  A 0.33 0.33 0.0 0 1 74.95 80.95
  L 75.83 79.67
  Q 76.00 79.42 76.00 79.11
  Z"
/>
<path fill="#ecddef" d="
  M 54.54 89.41
  Q 55.28 88.88 56.00 88.77
  L 55.39 91.30
  Q 55.30 91.67 55.57 91.95
  L 55.93 92.31
  A 0.67 0.67 0.0 0 0 57.06 91.99
  L 59.98 79.79
  Q 60.11 79.25 60.65 79.38
  Q 61.42 79.57 61.26 80.26
  C 60.42 84.04 59.89 91.69 56.14 93.53
  A 0.80 0.79 -36.6 0 1 55.25 93.40
  Q 53.55 91.88 54.54 89.41
  Z"
/>
<path fill="#ecddef" d="
  M 64.52 81.07
  L 63.99 80.75
  Q 62.91 80.11 64.16 80.00
  Q 67.12 79.73 66.30 83.01
  A 0.49 0.49 0.0 0 1 65.35 83.00
  L 65.07 81.82
  Q 64.95 81.33 64.52 81.07
  Z"
/>
<path fill="#f7f0f9" d="
  M 70.39 80.64
  Q 72.50 81.25 72.61 84.04
  A 0.42 0.42 0.0 0 0 73.21 84.40
  C 75.32 83.42 78.20 81.36 80.45 82.27
  Q 81.05 83.09 80.66 83.68
  A 0.77 0.76 -64.1 0 1 79.81 83.98
  C 77.05 83.14 70.31 87.36 69.36 90.02
  Q 69.18 90.53 68.65 90.43
  Q 67.59 90.23 67.75 89.16
  Q 67.82 88.69 68.19 88.40
  L 71.23 85.96
  A 0.81 0.81 0.0 0 0 71.51 85.14
  L 70.39 80.64
  Z"
/>
<path fill="#7e4d99" d="
  M 62.75 82.64
  L 62.79 82.37
  A 0.34 0.33 -59.7 0 1 63.39 82.21
  Q 64.78 84.10 62.87 85.17
  Q 62.00 85.66 62.25 84.69
  L 62.67 83.07
  Q 62.72 82.86 62.75 82.64
  Z"
/>
<path fill="#8f1760" d="
  M 79.27 96.12
  C 86.05 94.98 82.94 85.96 86.03 84.12
  A 0.51 0.51 0.0 0 1 86.79 84.63
  Q 86.19 88.57 84.98 92.24
  C 84.01 95.15 79.53 100.39 76.68 95.90
  A 0.56 0.56 0.0 0 1 77.52 95.18
  L 78.30 95.85
  A 1.20 1.19 -29.2 0 0 79.27 96.12
  Z"
/>
<path fill="#ecddef" d="
  M 52.77 93.70
  Q 52.56 93.16 53.51 93.23
  C 54.18 94.72 55.29 95.46 56.86 94.52
  C 61.17 91.92 61.11 86.39 66.02 85.25
  Q 66.70 85.09 66.80 85.78
  L 66.88 86.37
  A 0.53 0.53 0.0 0 1 66.49 86.95
  L 63.74 87.67
  Q 63.19 87.81 62.97 88.34
  Q 61.11 92.88 57.17 95.55
  C 55.08 96.98 53.26 96.11 52.77 93.70
  Z"
/>
<ellipse fill="#f7f0f9" cx="0.00" cy="0.00" transform="translate(77.01,89.75) rotate(26.4)" rx="1.91" ry="0.93"/>
</svg>
