<svg id="Layer_1" data-name="Layer 1" xmlns="http://www.w3.org/2000/svg" viewBox="0 0 274.66 316.36"><defs><style>.cls-1{fill:none;stroke:#838384;stroke-width:2px;}.cls-2{fill:#939598;}</style></defs><path class="cls-1" d="M52.6,225.38a.34.34,0,0,1-.17-.3V99.87a.34.34,0,0,1,.17-.3L160.8,37.11a.34.34,0,0,1,.34,0l37.65,21.8a.34.34,0,0,1,.17.3v76.63a.34.34,0,0,0,.33.35.28.28,0,0,0,.18,0l57.82-33.34a.34.34,0,0,0,.11-.47h0a.57.57,0,0,0-.11-.11L226.73,84.64a.34.34,0,0,1-.17-.3l-.09-41.15a.34.34,0,0,0-.17-.3L161.14,5.19a.34.34,0,0,0-.34,0L24.72,83.75a.34.34,0,0,0-.17.3l.06,156.86a.34.34,0,0,0,.17.3l63.09,36.41a.34.34,0,0,0,.51-.29l-.24-31.23a.34.34,0,0,0-.17-.29L52.6,225.38" transform="translate(-23.55 -4.14)"/><path class="cls-1" d="M192,140.46a.31.31,0,0,0,.12-.41h0a.29.29,0,0,0-.14-.13l-30.15-13.45a.31.31,0,0,1-.16-.41h0a.29.29,0,0,1,.13-.14l30.07-17.35a.3.3,0,0,0,.16-.27V64.74a.3.3,0,0,0-.16-.27L161,46.76a.29.29,0,0,0-.31,0l-99.85,57.7a.33.33,0,0,0-.15.27v111A.31.31,0,0,0,61,216a.22.22,0,0,0,.16,0L88,200.46a.33.33,0,0,0,.15-.27l.24-31.65a.33.33,0,0,1,.15-.27l43-24.84a.34.34,0,0,1,.28,0l30.89,13.74a.34.34,0,0,0,.28,0l29-16.71" transform="translate(-23.55 -4.14)"/><path class="cls-1" d="M161.1,287.53a.34.34,0,0,1-.34,0l-37.69-21.78a.34.34,0,0,1-.17-.3l-.25-76.59a.34.34,0,0,0-.33-.35.28.28,0,0,0-.18,0l-57.5,33.18a.34.34,0,0,0-.11.47h0a.57.57,0,0,0,.11.11L95,239.81a.34.34,0,0,1,.17.3v41.35a.34.34,0,0,0,.17.3l65.39,37.7a.34.34,0,0,0,.34,0L297,241a.34.34,0,0,0,.17-.3V83.73a.34.34,0,0,0-.17-.3L234.27,47.16a.34.34,0,0,0-.46.12.28.28,0,0,0,0,.18l-.17,31a.34.34,0,0,0,.17.3l35.7,20.62a.34.34,0,0,1,.17.3l-.18,125.07a.34.34,0,0,1-.17.3L161.1,287.53" transform="translate(-23.55 -4.14)"/><path class="cls-1" d="M233,196.46a.31.31,0,0,1,.42.12.33.33,0,0,1,0,.14l.16,7.08a.3.3,0,0,1-.16.27l-99.56,57.61a.31.31,0,0,0-.12.42.34.34,0,0,0,.12.12l26.92,15.56a.31.31,0,0,0,.32,0l100-57.7a.3.3,0,0,0,.16-.27v-71a.31.31,0,0,0-.31-.31h-.15L158,207.8a.31.31,0,0,1-.42-.12.38.38,0,0,1,0-.15V200.3a.33.33,0,0,1,.15-.27l103.37-59.84a.33.33,0,0,0,.15-.27v-31.1a.31.31,0,0,0-.31-.31.38.38,0,0,0-.15,0L129.9,184.08a.3.3,0,0,0-.16.27v71.11a.31.31,0,0,0,.31.31h.15L233,196.46" transform="translate(-23.55 -4.14)"/><path class="cls-1" d="M164.46,80.83a.34.34,0,0,0-.17-.3l-3.24-1.82a.34.34,0,0,0-.34,0L88.52,120.46a.34.34,0,0,0-.17.3l.09,15a.34.34,0,0,0,.34.34.48.48,0,0,0,.17,0l75.34-43.46a.34.34,0,0,0,.17-.3V80.83" transform="translate(-23.55 -4.14)"/><path class="cls-2" d="M52.6,225.38,88,245.81a.34.34,0,0,1,.17.29l.24,31.23a.34.34,0,0,1-.34.34h-.17L24.78,241.21a.34.34,0,0,1-.17-.3L24.55,84.05a.34.34,0,0,1,.17-.3L160.8,5.19a.34.34,0,0,1,.34,0l65.16,37.7a.34.34,0,0,1,.17.3l.09,41.15a.34.34,0,0,0,.17.3l30.55,17.58a.34.34,0,0,1,.11.47h0a.57.57,0,0,1-.11.11l-57.82,33.34A.34.34,0,0,1,199,136a.28.28,0,0,1,0-.18V59.21a.34.34,0,0,0-.17-.3l-37.65-21.8a.34.34,0,0,0-.34,0L52.64,99.57a.34.34,0,0,0-.17.3V225.08A.34.34,0,0,0,52.6,225.38Z" transform="translate(-23.55 -4.14)"/><path class="cls-2" d="M192,140.46l-29,16.69a.34.34,0,0,1-.28,0l-30.88-13.69a.34.34,0,0,0-.28,0l-43,24.84a.33.33,0,0,0-.15.27l-.24,31.65a.35.35,0,0,1-.22.24L61.18,216a.32.32,0,0,1-.43-.1h0a.22.22,0,0,1,0-.16v-111a.33.33,0,0,1,.15-.27l99.81-57.7a.29.29,0,0,1,.31,0l30.77,17.75a.3.3,0,0,1,.16.27v43.55a.3.3,0,0,1-.16.27L161.72,126a.31.31,0,0,0-.12.41h0a.29.29,0,0,0,.14.13L192,139.91a.31.31,0,0,1,.16.41h0A.25.25,0,0,1,192,140.46Zm-27.5-59.63a.34.34,0,0,0-.17-.3l-3.24-1.82a.34.34,0,0,0-.34,0L88.52,120.46a.34.34,0,0,0-.17.3l.09,15a.34.34,0,0,0,.34.34.48.48,0,0,0,.17,0l75.34-43.46a.34.34,0,0,0,.17-.3Z" transform="translate(-23.55 -4.14)"/><path class="cls-2" d="M161.1,287.53l108.18-62.46a.34.34,0,0,0,.17-.3l.18-125.07a.34.34,0,0,0-.17-.3l-35.7-20.62a.34.34,0,0,1-.17-.3l.17-31a.34.34,0,0,1,.33-.35.37.37,0,0,1,.18,0L297,83.46a.34.34,0,0,1,.17.3v156.9a.34.34,0,0,1-.17.3l-135.93,78.5a.34.34,0,0,1-.34,0L95.38,281.7a.34.34,0,0,1-.17-.3V240.16a.34.34,0,0,0-.17-.3l-30.4-17.54a.34.34,0,0,1-.11-.47h0l.11-.11,57.5-33.18a.34.34,0,0,1,.46.12.37.37,0,0,1,.05.18l.25,76.59a.34.34,0,0,0,.17.3l37.69,21.78A.34.34,0,0,0,161.1,287.53Z" transform="translate(-23.55 -4.14)"/><path class="cls-2" d="M233,196.46,130.2,255.71a.31.31,0,0,1-.42-.12.38.38,0,0,1,0-.15V184.35a.3.3,0,0,1,.16-.27l130.85-75.53a.31.31,0,0,1,.42.12.38.38,0,0,1,0,.15v31.1a.33.33,0,0,1-.15.27L157.61,200a.33.33,0,0,0-.15.27v7.23a.31.31,0,0,0,.31.31h.15l102.83-59.28a.31.31,0,0,1,.42.12.38.38,0,0,1,0,.15v71a.3.3,0,0,1-.16.27L161,277.8a.31.31,0,0,1-.32,0l-26.92-15.56a.31.31,0,0,1-.12-.42.34.34,0,0,1,.12-.12l99.56-57.61a.3.3,0,0,0,.16-.27l-.16-7.08a.32.32,0,0,0-.32-.3Z" transform="translate(-23.55 -4.14)"/></svg>