<svg id="Layer_1" data-name="Layer 1" xmlns="http://www.w3.org/2000/svg" viewBox="0 0 324.92 324.92"><defs><style>.cls-1{fill:none;stroke:#838384;stroke-width:2px;}.cls-2{fill:#060709;}.cls-3{fill:#fff;}</style></defs><path class="cls-1" d="M60.64,234.92a.34.34,0,0,1-.17-.3l0-125.21a.34.34,0,0,1,.17-.3L168.84,46.65a.34.34,0,0,1,.34,0l37.65,21.8a.34.34,0,0,1,.17.3v76.63a.35.35,0,0,0,.33.35.35.35,0,0,0,.18,0l57.82-33.34a.34.34,0,0,0,.11-.47.38.38,0,0,0-.11-.11L234.77,94.18a.34.34,0,0,1-.17-.3l-.09-41.15a.34.34,0,0,0-.17-.3l-65.16-37.7a.34.34,0,0,0-.34,0L32.76,93.29a.34.34,0,0,0-.17.3l.06,156.86a.34.34,0,0,0,.17.3l63.09,36.41a.34.34,0,0,0,.51-.29l-.24-31.23a.34.34,0,0,0-.17-.29L60.64,234.92" transform="translate(-8.04 -9.54)"/><path class="cls-1" d="M200,150a.3.3,0,0,0,.11-.42.29.29,0,0,0-.14-.13L169.82,136a.31.31,0,0,1-.16-.41.29.29,0,0,1,.13-.14l30.07-17.35a.3.3,0,0,0,.16-.27l0-43.55a.3.3,0,0,0-.16-.27L169.06,56.3a.29.29,0,0,0-.31,0L68.9,114a.33.33,0,0,0-.15.27v111a.31.31,0,0,0,.31.31.24.24,0,0,0,.16,0L96,210a.33.33,0,0,0,.15-.27l.24-31.65a.33.33,0,0,1,.15-.27l43-24.84a.31.31,0,0,1,.28,0l30.89,13.74a.31.31,0,0,0,.28,0L200,150" transform="translate(-8.04 -9.54)"/><path class="cls-1" d="M169.14,297.07a.34.34,0,0,1-.34,0l-37.69-21.78a.34.34,0,0,1-.17-.3l-.25-76.59a.35.35,0,0,0-.33-.35.35.35,0,0,0-.18,0l-57.5,33.18a.34.34,0,0,0-.11.47.38.38,0,0,0,.11.11l30.4,17.54a.34.34,0,0,1,.17.3V291a.34.34,0,0,0,.17.3L168.81,329a.34.34,0,0,0,.34,0L305.08,250.5a.34.34,0,0,0,.17-.3V93.27a.34.34,0,0,0-.17-.3L242.31,56.7a.34.34,0,0,0-.46.12.31.31,0,0,0,0,.18l-.17,31a.34.34,0,0,0,.17.3l35.7,20.62a.34.34,0,0,1,.17.3l-.18,125.07a.34.34,0,0,1-.17.3L169.14,297.07" transform="translate(-8.04 -9.54)"/><path class="cls-1" d="M241,206a.31.31,0,0,1,.42.12.23.23,0,0,1,0,.14l.16,7.08a.3.3,0,0,1-.16.27l-99.56,57.61a.31.31,0,0,0-.12.42.34.34,0,0,0,.12.12l26.92,15.56a.31.31,0,0,0,.32,0l100-57.7a.3.3,0,0,0,.16-.27v-71a.31.31,0,0,0-.31-.31.28.28,0,0,0-.15,0L166,217.34a.31.31,0,0,1-.42-.12.28.28,0,0,1,0-.15v-7.23a.33.33,0,0,1,.15-.27L269.1,149.73a.33.33,0,0,0,.15-.27v-31.1a.31.31,0,0,0-.31-.31.28.28,0,0,0-.15,0L137.94,193.62a.3.3,0,0,0-.16.27V265a.31.31,0,0,0,.31.31.28.28,0,0,0,.15,0L241,206" transform="translate(-8.04 -9.54)"/><path class="cls-1" d="M172.5,90.37a.34.34,0,0,0-.17-.3l-3.24-1.82a.34.34,0,0,0-.34,0L96.56,130a.34.34,0,0,0-.17.3l.09,15a.34.34,0,0,0,.34.34.48.48,0,0,0,.17-.05l75.34-43.46a.34.34,0,0,0,.17-.3V90.37" transform="translate(-8.04 -9.54)"/><path class="cls-2" d="M333,172A162.46,162.46,0,1,1,170.5,9.54,162.47,162.47,0,0,1,333,172ZM60.64,234.92a.34.34,0,0,1-.17-.3l0-125.21a.34.34,0,0,1,.17-.3L168.84,46.65a.34.34,0,0,1,.34,0l37.65,21.8a.34.34,0,0,1,.17.3v76.63a.35.35,0,0,0,.33.35.35.35,0,0,0,.18,0l57.82-33.34a.34.34,0,0,0,.11-.47.38.38,0,0,0-.11-.11L234.77,94.18a.34.34,0,0,1-.17-.3l-.09-41.15a.34.34,0,0,0-.17-.3l-65.16-37.7a.34.34,0,0,0-.34,0L32.76,93.29a.34.34,0,0,0-.17.3l.06,156.86a.34.34,0,0,0,.17.3l63.09,36.41a.34.34,0,0,0,.51-.29l-.24-31.23a.34.34,0,0,0-.17-.29ZM200,150a.3.3,0,0,0,.11-.42.29.29,0,0,0-.14-.13L169.82,136a.31.31,0,0,1-.16-.41.29.29,0,0,1,.13-.14l30.07-17.35a.3.3,0,0,0,.16-.27l0-43.55a.3.3,0,0,0-.16-.27L169.06,56.3a.29.29,0,0,0-.31,0L68.9,114a.33.33,0,0,0-.15.27v111a.31.31,0,0,0,.31.31.24.24,0,0,0,.16,0L96,210a.33.33,0,0,0,.15-.27l.24-31.65a.33.33,0,0,1,.15-.27l43-24.84a.31.31,0,0,1,.28,0l30.89,13.74a.31.31,0,0,0,.28,0ZM169.14,297.07a.34.34,0,0,1-.34,0l-37.69-21.78a.34.34,0,0,1-.17-.3l-.25-76.59a.35.35,0,0,0-.33-.35.35.35,0,0,0-.18,0l-57.5,33.18a.34.34,0,0,0-.11.47.38.38,0,0,0,.11.11l30.4,17.54a.34.34,0,0,1,.17.3V291a.34.34,0,0,0,.17.3L168.81,329a.34.34,0,0,0,.34,0L305.08,250.5a.34.34,0,0,0,.17-.3V93.27a.34.34,0,0,0-.17-.3L242.31,56.7a.34.34,0,0,0-.46.12.31.31,0,0,0,0,.18l-.17,31a.34.34,0,0,0,.17.3l35.7,20.62a.34.34,0,0,1,.17.3l-.18,125.07a.34.34,0,0,1-.17.3ZM241,206a.31.31,0,0,1,.42.12.23.23,0,0,1,0,.14l.16,7.08a.3.3,0,0,1-.16.27l-99.56,57.61a.31.31,0,0,0-.12.42.34.34,0,0,0,.12.12l26.92,15.56a.31.31,0,0,0,.32,0l100-57.7a.3.3,0,0,0,.16-.27v-71a.31.31,0,0,0-.31-.31.28.28,0,0,0-.15,0L166,217.34a.31.31,0,0,1-.42-.12.28.28,0,0,1,0-.15v-7.23a.33.33,0,0,1,.15-.27L269.1,149.73a.33.33,0,0,0,.15-.27v-31.1a.31.31,0,0,0-.31-.31.28.28,0,0,0-.15,0L137.94,193.62a.3.3,0,0,0-.16.27V265a.31.31,0,0,0,.31.31.28.28,0,0,0,.15,0Z" transform="translate(-8.04 -9.54)"/><path class="cls-3" d="M60.64,234.92,96,255.35a.34.34,0,0,1,.17.29l.24,31.23a.34.34,0,0,1-.34.34.48.48,0,0,1-.17,0L32.82,250.75a.34.34,0,0,1-.17-.3L32.59,93.59a.34.34,0,0,1,.17-.3L168.84,14.73a.34.34,0,0,1,.34,0l65.16,37.7a.34.34,0,0,1,.17.3l.09,41.15a.34.34,0,0,0,.17.3l30.55,17.58a.34.34,0,0,1,.11.47.38.38,0,0,1-.11.11L207.5,145.68a.34.34,0,0,1-.46-.12.31.31,0,0,1,0-.18V68.75a.34.34,0,0,0-.17-.3l-37.65-21.8a.34.34,0,0,0-.34,0L60.68,109.11a.34.34,0,0,0-.17.3l0,125.21A.34.34,0,0,0,60.64,234.92Z" transform="translate(-8.04 -9.54)"/><path class="cls-3" d="M200,150l-28.95,16.69a.31.31,0,0,1-.28,0L139.89,153a.31.31,0,0,0-.28,0l-43,24.84a.33.33,0,0,0-.15.27l-.24,31.65A.33.33,0,0,1,96,210L69.22,225.54a.31.31,0,0,1-.43-.11.29.29,0,0,1,0-.16v-111a.33.33,0,0,1,.15-.27L168.75,56.3a.29.29,0,0,1,.31,0l30.77,17.75a.3.3,0,0,1,.16.27l0,43.55a.3.3,0,0,1-.16.27l-30.07,17.35a.3.3,0,0,0-.11.42.29.29,0,0,0,.14.13L200,149.45a.31.31,0,0,1,.16.41A.29.29,0,0,1,200,150ZM172.5,90.37a.34.34,0,0,0-.17-.3l-3.24-1.82a.34.34,0,0,0-.34,0L96.56,130a.34.34,0,0,0-.17.3l.09,15a.34.34,0,0,0,.34.34.48.48,0,0,0,.17-.05l75.34-43.46a.34.34,0,0,0,.17-.3Z" transform="translate(-8.04 -9.54)"/><path class="cls-3" d="M169.14,297.07l108.18-62.46a.34.34,0,0,0,.17-.3l.18-125.07a.34.34,0,0,0-.17-.3L241.8,88.32a.34.34,0,0,1-.17-.3l.17-31a.35.35,0,0,1,.33-.35.35.35,0,0,1,.18.05L305.08,93a.34.34,0,0,1,.17.3V250.2a.34.34,0,0,1-.17.3L169.15,329a.34.34,0,0,1-.34,0l-65.39-37.76a.34.34,0,0,1-.17-.3V249.7a.34.34,0,0,0-.17-.3l-30.4-17.54a.34.34,0,0,1-.11-.47.38.38,0,0,1,.11-.11l57.5-33.18a.34.34,0,0,1,.46.12.31.31,0,0,1,.05.18l.25,76.59a.34.34,0,0,0,.17.3l37.69,21.78A.34.34,0,0,0,169.14,297.07Z" transform="translate(-8.04 -9.54)"/><path class="cls-2" d="M172.5,90.37v11.44a.34.34,0,0,1-.17.3L97,145.57a.34.34,0,0,1-.51-.29l-.09-15a.34.34,0,0,1,.17-.3l72.19-41.71a.34.34,0,0,1,.34,0l3.24,1.82A.34.34,0,0,1,172.5,90.37Z" transform="translate(-8.04 -9.54)"/><path class="cls-3" d="M241,206,138.24,265.25a.31.31,0,0,1-.42-.12.28.28,0,0,1,0-.15V193.89a.3.3,0,0,1,.16-.27l130.85-75.53a.31.31,0,0,1,.42.12.28.28,0,0,1,0,.15v31.1a.33.33,0,0,1-.15.27L165.65,209.57a.33.33,0,0,0-.15.27v7.23a.31.31,0,0,0,.31.31.28.28,0,0,0,.15,0l102.83-59.28a.31.31,0,0,1,.42.12.28.28,0,0,1,0,.15v71a.3.3,0,0,1-.16.27l-100,57.7a.31.31,0,0,1-.32,0l-26.92-15.56a.31.31,0,0,1-.12-.42.34.34,0,0,1,.12-.12l99.56-57.61a.3.3,0,0,0,.16-.27l-.16-7.08a.32.32,0,0,0-.32-.3A.33.33,0,0,0,241,206Z" transform="translate(-8.04 -9.54)"/></svg>