<svg id="Layer_1" data-name="Layer 1" xmlns="http://www.w3.org/2000/svg" viewBox="0 0 136.07 135"><defs><style>.cls-1{fill:#c9c8cb;}</style></defs><path class="cls-1" d="M71.46,11.78l-.4,1.8-4.13-.25L70.32,2.54l5.89.36L78.31,14,74,13.76l-.22-1.84Zm1.91-2.9C73.3,8,73.14,6.38,73,5.11h-.1c-.24,1.21-.5,2.56-.77,3.71Z" transform="translate(-0.86 -2.54)"/><path class="cls-1" d="M82.94,11.65a1.14,1.14,0,0,0,.9,1.52c.58.15.94,0,1-.47s-.16-.88-1.53-1.65c-2.76-1.53-3.19-2.9-2.83-4.3.6-2.34,2.87-3,5.52-2.31s4.33,2.35,3.83,4.73l-3.7-.95a1,1,0,0,0-.7-1.32c-.43-.11-.8,0-.89.37s.2.79,1.49,1.52c2.8,1.58,3.44,2.8,3,4.55-.66,2.58-3.16,3-5.91,2.29-3.24-.83-4.4-2.84-4-4.94Z" transform="translate(-0.86 -2.54)"/><path class="cls-1" d="M93.65,15.25a1.13,1.13,0,0,0,.6,1.66c.55.26.93.16,1.12-.26s0-.9-1.19-1.91c-2.43-2-2.59-3.44-2-4.75,1-2.18,3.38-2.4,5.85-1.24s3.82,3.12,2.89,5.37l-3.47-1.63A1,1,0,0,0,97,11.06c-.41-.19-.79-.14-1,.19s0,.82,1.18,1.78c2.46,2.07,2.86,3.39,2.09,5-1.13,2.4-3.66,2.34-6.24,1.13-3-1.41-3.79-3.6-3-5.59Z" transform="translate(-0.86 -2.54)"/><path class="cls-1" d="M102.55,22.17l-1.3,1.31L97.9,21.05l8.63-7.3,4.78,3.47-4.18,10.52-3.52-2.55.8-1.67Zm3.16-1.43c.4-.75,1.15-2.23,1.74-3.35l-.08-.06c-.84.89-1.79,1.88-2.63,2.71Z" transform="translate(-0.86 -2.54)"/><path class="cls-1" d="M115.26,20.52l2.93,3.05-5.85,5.63,3.08,3.2-2.34,1.68-5.72-5.95Z" transform="translate(-0.86 -2.54)"/><path class="cls-1" d="M117.44,37l-1.68.77-2.28-3.46,10.65-3.78,3.26,4.92-7.62,8.38-2.4-3.63L118.71,39Zm3.46-.22c.64-.56,1.86-1.68,2.82-2.53l-.06-.08c-1.1.53-2.34,1.13-3.42,1.61Z" transform="translate(-0.86 -2.54)"/><path class="cls-1" d="M125.72,51.36c1.38-.53,3.68-1.36,5-1.81l0-.11c-2.38.59-5.58,1.4-7.94,1.93l-1.12-2.95c2.6-1.34,4.77-2.47,7.2-3.7l0-.13c-1.17.52-3.05,1.3-4.81,2l-2.67,1L120,44.15l10.25-3.9,2.07,5.44c-1.08.53-3.68,1.8-5,2.39l0,.13c2.08-.49,3.46-1,5.37-1.34l2,5.35-10.25,3.9-1.43-3.77Z" transform="translate(-0.86 -2.54)"/><path class="cls-1" d="M136.1,59.81l-7.29,1c-.68.09-1.11.4-1,1s.57.8,1.27.71l7.29-1,.58,4.22-6.91,1c-3,.42-4.51-1.3-5-4.56s.59-5.19,3.57-5.6l6.89-1Z" transform="translate(-0.86 -2.54)"/><path class="cls-1" d="M127.7,71.94l-1.81-.38.23-4.13,10.81,3.31-.32,5.9L125.5,78.82l.23-4.35,1.84-.23Zm2.91,1.89,3.77-.35v-.1c-1.2-.23-2.55-.48-3.71-.75Z" transform="translate(-0.86 -2.54)"/><path class="cls-1" d="M136,81.78l-1,4.1L127.07,84l-1,4.31-2.68-1.06,1.93-8Z" transform="translate(-0.86 -2.54)"/><path class="cls-1" d="M123.19,92.5l-1.55-1,1.7-3.78,8.9,7-2.41,5.39-11.16-1.94,1.78-4,1.8.45Zm2,2.8c.82.25,2.42.67,3.65,1l0-.09c-1-.65-2.21-1.37-3.2-2Z" transform="translate(-0.86 -2.54)"/><path class="cls-1" d="M117.56,99.49l3,2a.93.93,0,0,0,.52.21l7.6.92L126,106.55c-1.46-.46-2.91-.89-4.18-1.35,1,1.22,2,2.51,2.8,3.41l-2.44,3.62-3.67-6.84a1.61,1.61,0,0,0-.37-.37l-3-2Z" transform="translate(-0.86 -2.54)"/><path class="cls-1" d="M120.8,113.84l-2.91,2.93L115,113.89c.5,1.66,1.07,3.23,1.44,4.33L113,121.64l-.83-5.34-7-2.32,3.45-3.47,3.71,1.86L112.1,111l-2-2L113,106.1Z" transform="translate(-0.86 -2.54)"/><path class="cls-1" d="M107.93,125.23l-4.12-6.1c-.39-.57-.85-.81-1.4-.44s-.47.86-.07,1.44l4.12,6.09-3.52,2.39L99,122.83c-1.71-2.51-.83-4.62,1.89-6.46s4.92-1.76,6.61.73l3.9,5.76Z" transform="translate(-0.86 -2.54)"/><path class="cls-1" d="M88.77,126c.54,1.37,1.41,3.66,1.87,5l.11,0c-.62-2.37-1.47-5.56-2-7.92l2.94-1.16c1.37,2.59,2.52,4.76,3.78,7.16l.13,0c-.53-1.17-1.34-3-2-4.8l-1-2.65,3.41-1.34,4,10.22-5.42,2.13c-.55-1.08-1.85-3.66-2.45-4.94l-.12,0c.51,2.07,1,3.45,1.39,5.35L88,135l-4-10.21,3.75-1.48Z" transform="translate(-0.86 -2.54)"/><path class="cls-1" d="M83.27,122.92a10.92,10.92,0,0,0,.06,5.33l-3,.65a8.52,8.52,0,0,1,.36-5.41Z" transform="translate(-0.86 -2.54)"/><path class="cls-1" d="M72.61,137.34l-.91-10.93,4.21-.35L76.82,137Z" transform="translate(-0.86 -2.54)"/><path class="cls-1" d="M63.21,130l.4-3.8,4,.42-1.15,10.92-5.86-.62c-3-.32-3.85-2.09-3.71-3.43a2.59,2.59,0,0,1,2-2.43,2.46,2.46,0,0,1-1.31-2.81l0-.4a13.5,13.5,0,0,0,.14-2.26l4,.42a7.2,7.2,0,0,1,0,2.2l0,.32c-.11,1.07.14,1.34,1,1.43Zm-.27,2.56-.7-.07a.93.93,0,0,0-1.13.92.9.9,0,0,0,.93,1.1l.69.07Z" transform="translate(-0.86 -2.54)"/><path class="cls-1" d="M50,134.75l2.72-10.64,4.09,1L54,135.8Z" transform="translate(-0.86 -2.54)"/><path class="cls-1" d="M47.25,134l-8-3.2,1-2.59,4.12,1.66.52-1.29L41.13,127l1-2.61L46,126l1.49-3.69,3.84,1.54Z" transform="translate(-0.86 -2.54)"/><path class="cls-1" d="M39.09,120.16l1.2-1.41,3.52,2.18-8.07,7.91-5-3.1,3.39-10.8,3.7,2.28L37.14,119ZM36,121.81c-.34.78-1,2.31-1.49,3.48l.09,0c.77-1,1.64-2,2.42-2.9Z" transform="translate(-0.86 -2.54)"/><path class="cls-1" d="M27.64,119.92l2.07,1.8-1.84,2.11-7.27-6.34,1.84-2.11,2,1.77L29.84,111,33,113.76Z" transform="translate(-0.86 -2.54)"/><path class="cls-1" d="M24.62,105.71,16.7,113.6,14.27,110c1.49-1.14,3.42-2.58,5.43-4.07l-.08-.1c-2.29,1.06-3.91,1.91-6.15,3l-2.07-3.07c1.73-1.56,3.15-2.69,5.08-4.38l-.08-.11c-1.45.87-4.3,2.45-5.79,3.3l-2.23-3.31,10.44-4.14,2.4,3.56c-1.4,1.28-2.57,2.32-4.29,3.84l.06.08c2-.92,3.42-1.57,5.23-2.43Z" transform="translate(-0.86 -2.54)"/><path class="cls-1" d="M10.61,88.26l1.65,4.15,1.28-.51-1.87-4.7,2.75-.62,3.19,8-10.19,4L4.21,90.6l2.6-1,1.72,4.32,1.13-.45L8,89.29Z" transform="translate(-0.86 -2.54)"/><path class="cls-1" d="M3.39,87.74,2.52,83.6l8-1.66-.91-4.35,2.87-.18,1.7,8.08Z" transform="translate(-0.86 -2.54)"/><path class="cls-1" d="M8.09,66.29c2.7.25,4.23,1.86,4.33,5.2.12,4.17-2.53,5.5-5.59,5.59S1,75.72.87,71.7s2.2-5.13,3.93-5.28l.12,4.17c-.86.09-1.34.35-1.32,1,0,.82.87,1.13,3.11,1.06,2-.06,3-.4,2.94-1.19s-.64-1-1.44-1Z" transform="translate(-0.86 -2.54)"/><path class="cls-1" d="M8.46,53.64c3.25.57,5.51,2.49,4.76,6.75-.67,3.8-3.33,5-6.7,4.46-3.17-.56-5.35-2.66-4.65-6.66S5.42,53.1,8.46,53.64ZM7.22,60.48c2.08.37,3.15.32,3.33-.71S9.81,58.37,7.62,58c-2-.35-2.86-.3-3,.75S5.21,60.12,7.22,60.48Z" transform="translate(-0.86 -2.54)"/><path class="cls-1" d="M15,44.67c-1.35-.58-3.59-1.57-4.85-2.17l0,.11c2.12,1.23,5,2.87,7,4.13l-1.24,2.9c-2.81-.84-5.15-1.54-7.75-2.34l-.06.12c1.21.45,3.1,1.19,4.84,1.93l2.61,1.12-1.44,3.37L4,49.52l2.29-5.35c1.15.37,3.9,1.26,5.23,1.72l.06-.12C9.74,44.68,8.43,44.05,6.79,43L9,37.75l10.09,4.32-1.58,3.7Z" transform="translate(-0.86 -2.54)"/><path class="cls-1" d="M21.41,31.81l-2.58,3.65,1.13.8,2.92-4.14,2,2-5,7.06-9-6.32,5-7.09,2.29,1.61-2.68,3.8,1,.7,2.58-3.65Z" transform="translate(-0.86 -2.54)"/><path class="cls-1" d="M29.24,29.57l-2.41-2.69a.92.92,0,0,0-.45-.33L19.24,23.8l3.51-3.15c1.3.81,2.6,1.58,3.72,2.34-.65-1.42-1.37-2.94-1.87-4l3.24-2.91,1.89,7.53a1.54,1.54,0,0,0,.27.44l2.4,2.68Z" transform="translate(-0.86 -2.54)"/><path class="cls-1" d="M41.33,14.12c1.71,2.81,1.76,5.78-1.94,8-3.3,2-6,.83-7.77-2.09-1.67-2.75-1.53-5.78,1.95-7.88S39.73,11.48,41.33,14.12Zm-6,3.58c1.09,1.8,1.83,2.57,2.73,2s.56-1.49-.59-3.39c-1-1.69-1.66-2.34-2.57-1.79S34.3,16,35.37,17.7Z" transform="translate(-0.86 -2.54)"/><path class="cls-1" d="M45.27,6.82l2.47,6.94c.23.65.61,1,1.23.78s.68-.71.44-1.38L47,6.23,51,4.8l2.33,6.58c1,2.86-.36,4.67-3.46,5.78s-5.2.47-6.21-2.36L41.29,8.24Z" transform="translate(-0.86 -2.54)"/><path class="cls-1" d="M55.52,15.12l-.71-3.41L58.05,11l.72,3.42Z" transform="translate(-0.86 -2.54)"/></svg>